<?xml version="1.0" encoding="utf-8" ?>
<svg baseProfile="full" height="200px" version="1.1" width="600px" xmlns="http://www.w3.org/2000/svg" xmlns:ev="http://www.w3.org/2001/xml-events" xmlns:xlink="http://www.w3.org/1999/xlink"><defs /><rect fill="#35a79c" height="6.530612244897959px" rx="2px" stroke="#000000" stroke-width="1" width="6.530612244897959px" x="59.04594994171601" y="41.04854175596266" /><rect fill="#35a79c" height="6.530612244897959px" rx="2px" stroke="#000000" stroke-width="1" width="6.530612244897959px" x="58.21467384827941" y="43.54146304174663" /><rect fill="#009688" height="6.530612244897959px" rx="2px" stroke="#000000" stroke-width="1" width="6.530612244897959px" x="54.60826197819138" y="46.70283369829363" /><rect fill="#54b2a9" height="6.530612244897959px" rx="2px" stroke="#000000" stroke-width="1" width="6.530612244897959px" x="53.69275466688029" y="41.72241212083771" /><rect fill="#65c3ba" height="6.530612244897959px" rx="2px" stroke="#000000" stroke-width="1" width="6.530612244897959px" x="57.509463826128204" y="47.02875404119231" /><rect fill="#65c3ba" height="6.530612244897959px" rx="2px" stroke="#000000" stroke-width="1" width="6.530612244897959px" x="57.00529554025348" y="48.26857897176428" /><rect fill="#65c3ba" height="7.836734693877551px" rx="2px" stroke="#000000" stroke-width="1" width="7.836734693877551px" x="74.34036872163452" y="43.342818774731185" /><rect fill="#54b2a9" height="7.836734693877551px" rx="2px" stroke="#000000" stroke-width="1" width="7.836734693877551px" x="72.9178918809765" y="43.24855751120337" /><rect fill="#009688" height="7.836734693877551px" rx="2px" stroke="#000000" stroke-width="1" width="7.836734693877551px" x="71.18962758099411" y="45.1304674012666" /><rect fill="#35a79c" height="7.836734693877551px" rx="2px" stroke="#000000" stroke-width="1" width="7.836734693877551px" x="72.75423599411083" y="42.054772892976025" /><rect fill="#65c3ba" height="7.836734693877551px" rx="2px" stroke="#000000" stroke-width="1" width="7.836734693877551px" x="90.40128618764788" y="42.939443265329395" /><rect fill="#65c3ba" height="7.836734693877551px" rx="2px" stroke="#000000" stroke-width="1" width="7.836734693877551px" x="87.43838436980246" y="46.6365994306458" /><rect fill="#83d0c9" height="7.836734693877551px" rx="2px" stroke="#000000" stroke-width="1" width="7.836734693877551px" x="85.8805555166021" y="41.860578704014344" /><rect fill="#65c3ba" height="7.836734693877551px" rx="2px" stroke="#000000" stroke-width="1" width="7.836734693877551px" x="88.32186003019432" y="45.60404430855065" /><rect fill="#83d0c9" height="6.530612244897959px" rx="2px" stroke="#000000" stroke-width="1" width="6.530612244897959px" x="106.0813005745691" y="41.855631386367946" /><rect fill="#54b2a9" height="6.530612244897959px" rx="2px" stroke="#000000" stroke-width="1" width="6.530612244897959px" x="106.60859744184754" y="46.74096196229847" /><rect fill="#65c3ba" height="6.530612244897959px" rx="2px" stroke="#000000" stroke-width="1" width="6.530612244897959px" x="101.83322643951206" y="44.24743023969168" /><rect fill="#54b2a9" height="6.530612244897959px" rx="2px" stroke="#000000" stroke-width="1" width="6.530612244897959px" x="101.0242405243517" y="46.39358560080464" /><rect fill="#83d0c9" height="6.530612244897959px" rx="2px" stroke="#000000" stroke-width="1" width="6.530612244897959px" x="108.25940906502983" y="46.69139111945012" /><rect fill="#54b2a9" height="6.530612244897959px" rx="2px" stroke="#000000" stroke-width="1" width="6.530612244897959px" x="107.81677120816744" y="47.50224074612769" /><rect fill="#54b2a9" height="3.9183673469387763px" rx="2px" stroke="#000000" stroke-width="1" width="3.9183673469387763px" x="119.30810696332061" y="50.1281119678577" /><rect fill="#65c3ba" height="3.9183673469387763px" rx="2px" stroke="#000000" stroke-width="1" width="3.9183673469387763px" x="117.71435777234683" y="43.39947529343436" /><rect fill="#83d0c9" height="3.9183673469387763px" rx="2px" stroke="#000000" stroke-width="1" width="3.9183673469387763px" x="119.1598567926734" y="42.333919454493106" /><rect fill="#65c3ba" height="3.9183673469387763px" rx="2px" stroke="#000000" stroke-width="1" width="3.9183673469387763px" x="122.8091541829005" y="43.44980893354057" /><rect fill="#009688" height="3.9183673469387763px" rx="2px" stroke="#000000" stroke-width="1" width="3.9183673469387763px" x="125.1408880999331" y="42.9196428100973" /><rect fill="#65c3ba" height="3.9183673469387763px" rx="2px" stroke="#000000" stroke-width="1" width="3.9183673469387763px" x="123.64362200531109" y="44.571897916229375" /><rect fill="#009688" height="3.9183673469387763px" rx="2px" stroke="#000000" stroke-width="1" width="3.9183673469387763px" x="121.70837114306362" y="48.350274890472775" /><rect fill="#009688" height="3.9183673469387763px" rx="2px" stroke="#000000" stroke-width="1" width="3.9183673469387763px" x="117.61107471416418" y="48.34158189163151" /><rect fill="#65c3ba" height="3.9183673469387763px" rx="2px" stroke="#000000" stroke-width="1" width="3.9183673469387763px" x="119.50686181544124" y="42.91761634224002" /><rect fill="#65c3ba" height="3.9183673469387763px" rx="2px" stroke="#000000" stroke-width="1" width="3.9183673469387763px" x="118.4132664237718" y="42.849858973038636" /><rect fill="#65c3ba" height="3.9183673469387763px" rx="2px" stroke="#000000" stroke-width="1" width="3.9183673469387763px" x="119.51845684191342" y="50.30802461310919" /><rect fill="#009688" height="3.9183673469387763px" rx="2px" stroke="#000000" stroke-width="1" width="3.9183673469387763px" x="125.14618344688697" y="49.629543773048496" /><rect fill="#009688" height="3.9183673469387763px" rx="2px" stroke="#000000" stroke-width="1" width="3.9183673469387763px" x="117.51001295480187" y="51.074398763181364" /><rect fill="#35a79c" height="3.9183673469387763px" rx="2px" stroke="#000000" stroke-width="1" width="3.9183673469387763px" x="126.76906430813607" y="50.33929162461255" /><rect fill="#35a79c" height="3.9183673469387763px" rx="2px" stroke="#000000" stroke-width="1" width="3.9183673469387763px" x="118.6766875232313" y="45.89605542801337" /><rect fill="#35a79c" height="3.9183673469387763px" rx="2px" stroke="#000000" stroke-width="1" width="3.9183673469387763px" x="125.71708764593727" y="50.09809746045329" /><rect fill="#54b2a9" height="7.836734693877551px" rx="2px" stroke="#000000" stroke-width="1" width="7.836734693877551px" x="41.534543428454924" y="57.37569768542669" /><rect fill="#83d0c9" height="7.836734693877551px" rx="2px" stroke="#000000" stroke-width="1" width="7.836734693877551px" x="37.35232474322571" y="60.60044150054305" /><rect fill="#009688" height="7.836734693877551px" rx="2px" stroke="#000000" stroke-width="1" width="7.836734693877551px" x="42.66642680635279" y="60.27347128268782" /><rect fill="#35a79c" height="7.836734693877551px" rx="2px" stroke="#000000" stroke-width="1" width="7.836734693877551px" x="42.921535281405795" y="57.493748214339945" /><rect fill="#83d0c9" height="10.448979591836736px" rx="2px" stroke="#000000" stroke-width="1" width="10.448979591836736px" x="53.874315724800425" y="59.1111496472412" /><rect fill="#83d0c9" height="10.448979591836736px" rx="2px" stroke="#000000" stroke-width="1" width="10.448979591836736px" x="53.291124746043025" y="59.3343455228208" /><rect fill="#54b2a9" height="11.755102040816325px" rx="2px" stroke="#000000" stroke-width="1" width="11.755102040816325px" x="69.53582560791313" y="57.88849883973547" /><rect fill="#83d0c9" height="11.755102040816325px" rx="2px" stroke="#000000" stroke-width="1" width="11.755102040816325px" x="85.02091225014831" y="58.394439144984496" /><rect fill="#35a79c" height="10.448979591836736px" rx="2px" stroke="#000000" stroke-width="1" width="10.448979591836736px" x="104.12230657535328" y="58.312198233480935" /><rect fill="#54b2a9" height="10.448979591836736px" rx="2px" stroke="#000000" stroke-width="1" width="10.448979591836736px" x="102.55600236129268" y="58.92897807007176" /><rect fill="#35a79c" height="7.836734693877551px" rx="2px" stroke="#000000" stroke-width="1" width="7.836734693877551px" x="117.95806670922545" y="58.73653865265886" /><rect fill="#54b2a9" height="7.836734693877551px" rx="2px" stroke="#000000" stroke-width="1" width="7.836734693877551px" x="121.42283429624321" y="58.25482425148756" /><rect fill="#009688" height="7.836734693877551px" rx="2px" stroke="#000000" stroke-width="1" width="7.836734693877551px" x="120.11497011317535" y="58.54772690051241" /><rect fill="#54b2a9" height="7.836734693877551px" rx="2px" stroke="#000000" stroke-width="1" width="7.836734693877551px" x="117.56885994386215" y="59.61060986355603" /><rect fill="#35a79c" height="3.9183673469387763px" rx="2px" stroke="#000000" stroke-width="1" width="3.9183673469387763px" x="136.5251277893119" y="65.27234637142759" /><rect fill="#65c3ba" height="3.9183673469387763px" rx="2px" stroke="#000000" stroke-width="1" width="3.9183673469387763px" x="135.2474333126463" y="63.654212087302504" /><rect fill="#54b2a9" height="3.9183673469387763px" rx="2px" stroke="#000000" stroke-width="1" width="3.9183673469387763px" x="136.3094164059524" y="65.71408884414207" /><rect fill="#83d0c9" height="3.9183673469387763px" rx="2px" stroke="#000000" stroke-width="1" width="3.9183673469387763px" x="136.5401262809567" y="62.13564089205818" /><rect fill="#54b2a9" height="3.9183673469387763px" rx="2px" stroke="#000000" stroke-width="1" width="3.9183673469387763px" x="136.33853132444727" y="57.27825845610408" /><rect fill="#54b2a9" height="3.9183673469387763px" rx="2px" stroke="#000000" stroke-width="1" width="3.9183673469387763px" x="134.80025512631016" y="66.70391738747364" /><rect fill="#54b2a9" height="3.9183673469387763px" rx="2px" stroke="#000000" stroke-width="1" width="3.9183673469387763px" x="133.38569501005128" y="63.01441224416216" /><rect fill="#83d0c9" height="3.9183673469387763px" rx="2px" stroke="#000000" stroke-width="1" width="3.9183673469387763px" x="140.34492367270278" y="60.16237945331277" /><rect fill="#83d0c9" height="3.9183673469387763px" rx="2px" stroke="#000000" stroke-width="1" width="3.9183673469387763px" x="142.92270427678358" y="58.165898312458964" /><rect fill="#65c3ba" height="3.9183673469387763px" rx="2px" stroke="#000000" stroke-width="1" width="3.9183673469387763px" x="134.9163043796762" y="57.44748872763951" /><rect fill="#83d0c9" height="3.9183673469387763px" rx="2px" stroke="#000000" stroke-width="1" width="3.9183673469387763px" x="133.01705084571435" y="66.3313088113581" /><rect fill="#35a79c" height="3.9183673469387763px" rx="2px" stroke="#000000" stroke-width="1" width="3.9183673469387763px" x="139.92464144032198" y="66.4793873770692" /><rect fill="#54b2a9" height="3.9183673469387763px" rx="2px" stroke="#000000" stroke-width="1" width="3.9183673469387763px" x="136.671947082856" y="57.70545025911015" /><rect fill="#009688" height="3.9183673469387763px" rx="2px" stroke="#000000" stroke-width="1" width="3.9183673469387763px" x="139.28242392884746" y="63.68802884235059" /><rect fill="#54b2a9" height="3.9183673469387763px" rx="2px" stroke="#000000" stroke-width="1" width="3.9183673469387763px" x="140.25629808018147" y="60.027738785640096" /><rect fill="#54b2a9" height="3.9183673469387763px" rx="2px" stroke="#000000" stroke-width="1" width="3.9183673469387763px" x="139.72336927812717" y="60.288456224480726" /><rect fill="#35a79c" height="6.530612244897959px" rx="2px" stroke="#000000" stroke-width="1" width="6.530612244897959px" x="26.9287174708734" y="80.16935741526513" /><rect fill="#83d0c9" height="6.530612244897959px" rx="2px" stroke="#000000" stroke-width="1" width="6.530612244897959px" x="25.92121168713107" y="75.11971069851936" /><rect fill="#35a79c" height="6.530612244897959px" rx="2px" stroke="#000000" stroke-width="1" width="6.530612244897959px" x="23.503651050611982" y="79.11312220449835" /><rect fill="#35a79c" height="6.530612244897959px" rx="2px" stroke="#000000" stroke-width="1" width="6.530612244897959px" x="26.02537174334537" y="74.67792823989811" /><rect fill="#65c3ba" height="6.530612244897959px" rx="2px" stroke="#000000" stroke-width="1" width="6.530612244897959px" x="22.100643881264343" y="73.34518818003978" /><rect fill="#65c3ba" height="6.530612244897959px" rx="2px" stroke="#000000" stroke-width="1" width="6.530612244897959px" x="25.56584232939202" y="78.74014485865453" /><rect fill="#009688" height="10.448979591836736px" rx="2px" stroke="#000000" stroke-width="1" width="10.448979591836736px" x="40.169853260424034" y="76.05544200782691" /><rect fill="#83d0c9" height="10.448979591836736px" rx="2px" stroke="#000000" stroke-width="1" width="10.448979591836736px" x="39.76418675056152" y="73.7771093429662" /><rect fill="#65c3ba" height="7.836734693877551px" rx="2px" stroke="#000000" stroke-width="1" width="7.836734693877551px" x="23.630116501455387" y="94.58918629791319" /><rect fill="#65c3ba" height="7.836734693877551px" rx="2px" stroke="#000000" stroke-width="1" width="7.836734693877551px" x="26.529731575029494" y="93.58334578637132" /><rect fill="#54b2a9" height="7.836734693877551px" rx="2px" stroke="#000000" stroke-width="1" width="7.836734693877551px" x="23.77389932017482" y="93.63339978618683" /><rect fill="#35a79c" height="7.836734693877551px" rx="2px" stroke="#000000" stroke-width="1" width="7.836734693877551px" x="25.71991291138253" y="92.21290905049082" /><rect fill="#83d0c9" height="11.755102040816325px" rx="2px" stroke="#000000" stroke-width="1" width="11.755102040816325px" x="37.60997268936817" y="89.71771535767476" /><rect fill="#65c3ba" height="15.673469387755102px" rx="2px" stroke="#000000" stroke-width="1" width="15.673469387755102px" x="83.81782919144993" y="88.89251498451964" /><rect fill="#83d0c9" height="14.36734693877551px" rx="2px" stroke="#000000" stroke-width="1" width="14.36734693877551px" x="100.69403997860962" y="88.85692688514276" /><rect fill="#54b2a9" height="11.755102040816325px" rx="2px" stroke="#000000" stroke-width="1" width="11.755102040816325px" x="118.07077082818998" y="91.11635882281124" /><rect fill="#35a79c" height="7.836734693877551px" rx="2px" stroke="#000000" stroke-width="1" width="7.836734693877551px" x="25.122445580165735" y="109.91916289744688" /><rect fill="#83d0c9" height="7.836734693877551px" rx="2px" stroke="#000000" stroke-width="1" width="7.836734693877551px" x="26.180259392752912" y="110.6673789682047" /><rect fill="#83d0c9" height="7.836734693877551px" rx="2px" stroke="#000000" stroke-width="1" width="7.836734693877551px" x="24.291945635077884" y="110.58964319390212" /><rect fill="#65c3ba" height="7.836734693877551px" rx="2px" stroke="#000000" stroke-width="1" width="7.836734693877551px" x="24.47849752803024" y="105.16703710193417" /><rect fill="#54b2a9" height="11.755102040816325px" rx="2px" stroke="#000000" stroke-width="1" width="11.755102040816325px" x="37.8510494910346" y="105.4751557400666" /><rect fill="#009688" height="15.673469387755102px" rx="2px" stroke="#000000" stroke-width="1" width="15.673469387755102px" x="68.57783131416011" y="104.86293242680705" /><rect fill="#009688" height="15.673469387755102px" rx="2px" stroke="#000000" stroke-width="1" width="15.673469387755102px" x="83.91200376231654" y="103.6926304067736" /><rect fill="#65c3ba" height="14.36734693877551px" rx="2px" stroke="#000000" stroke-width="1" width="14.36734693877551px" x="100.771754248601" y="104.91237124583672" /><rect fill="#83d0c9" height="11.755102040816325px" rx="2px" stroke="#000000" stroke-width="1" width="11.755102040816325px" x="118.72160797590176" y="105.37666950551956" /><rect fill="#35a79c" height="7.836734693877551px" rx="2px" stroke="#000000" stroke-width="1" width="7.836734693877551px" x="136.6492562060705" y="110.11903333472767" /><rect fill="#83d0c9" height="7.836734693877551px" rx="2px" stroke="#000000" stroke-width="1" width="7.836734693877551px" x="133.62804478050379" y="109.76100463786264" /><rect fill="#83d0c9" height="7.836734693877551px" rx="2px" stroke="#000000" stroke-width="1" width="7.836734693877551px" x="137.9646825514519" y="109.90735957986253" /><rect fill="#65c3ba" height="7.836734693877551px" rx="2px" stroke="#000000" stroke-width="1" width="7.836734693877551px" x="137.823589277572" y="107.13990892088064" /><rect fill="#009688" height="6.530612244897959px" rx="2px" stroke="#000000" stroke-width="1" width="6.530612244897959px" x="23.004750345428906" y="127.36177584830766" /><rect fill="#65c3ba" height="6.530612244897959px" rx="2px" stroke="#000000" stroke-width="1" width="6.530612244897959px" x="23.083423249070286" y="124.36721494022285" /><rect fill="#54b2a9" height="6.530612244897959px" rx="2px" stroke="#000000" stroke-width="1" width="6.530612244897959px" x="25.256427958209507" y="125.99095877924593" /><rect fill="#35a79c" height="6.530612244897959px" rx="2px" stroke="#000000" stroke-width="1" width="6.530612244897959px" x="21.214371411915362" y="127.35609669572163" /><rect fill="#54b2a9" height="6.530612244897959px" rx="2px" stroke="#000000" stroke-width="1" width="6.530612244897959px" x="24.641699495004737" y="123.65032525756023" /><rect fill="#54b2a9" height="6.530612244897959px" rx="2px" stroke="#000000" stroke-width="1" width="6.530612244897959px" x="23.542122787716895" y="127.57545127737777" /><rect fill="#65c3ba" height="10.448979591836736px" rx="2px" stroke="#000000" stroke-width="1" width="10.448979591836736px" x="39.69225815726426" y="123.45236785844276" /><rect fill="#54b2a9" height="10.448979591836736px" rx="2px" stroke="#000000" stroke-width="1" width="10.448979591836736px" x="38.59147697200129" y="121.06123116584932" /><rect fill="#54b2a9" height="10.448979591836736px" rx="2px" stroke="#000000" stroke-width="1" width="10.448979591836736px" x="118.5109727226675" y="123.64883195894221" /><rect fill="#54b2a9" height="10.448979591836736px" rx="2px" stroke="#000000" stroke-width="1" width="10.448979591836736px" x="118.2492863633646" y="122.61125868849903" /><rect fill="#54b2a9" height="6.530612244897959px" rx="2px" stroke="#000000" stroke-width="1" width="6.530612244897959px" x="133.10567964113713" y="124.98966209534622" /><rect fill="#54b2a9" height="6.530612244897959px" rx="2px" stroke="#000000" stroke-width="1" width="6.530612244897959px" x="133.33997441958894" y="121.40727598790754" /><rect fill="#65c3ba" height="6.530612244897959px" rx="2px" stroke="#000000" stroke-width="1" width="6.530612244897959px" x="138.20928093479858" y="121.94323049842403" /><rect fill="#54b2a9" height="6.530612244897959px" rx="2px" stroke="#000000" stroke-width="1" width="6.530612244897959px" x="133.76626691274123" y="121.09161505378441" /><rect fill="#35a79c" height="6.530612244897959px" rx="2px" stroke="#000000" stroke-width="1" width="6.530612244897959px" x="136.50610779274626" y="124.29003224730162" /><rect fill="#65c3ba" height="6.530612244897959px" rx="2px" stroke="#000000" stroke-width="1" width="6.530612244897959px" x="140.21167627323706" y="122.88585899837608" /><rect fill="#83d0c9" height="7.836734693877551px" rx="2px" stroke="#000000" stroke-width="1" width="7.836734693877551px" x="41.711467765071646" y="140.7368965443954" /><rect fill="#65c3ba" height="7.836734693877551px" rx="2px" stroke="#000000" stroke-width="1" width="7.836734693877551px" x="38.39096970191103" y="140.2207531757005" /><rect fill="#83d0c9" height="7.836734693877551px" rx="2px" stroke="#000000" stroke-width="1" width="7.836734693877551px" x="42.599353511069154" y="138.83266624531126" /><rect fill="#83d0c9" height="7.836734693877551px" rx="2px" stroke="#000000" stroke-width="1" width="7.836734693877551px" x="43.10182531961169" y="138.8821394649887" /><rect fill="#009688" height="10.448979591836736px" rx="2px" stroke="#000000" stroke-width="1" width="10.448979591836736px" x="53.5577129438423" y="137.61721545732246" /><rect fill="#83d0c9" height="10.448979591836736px" rx="2px" stroke="#000000" stroke-width="1" width="10.448979591836736px" x="53.55585051198175" y="138.45065423760906" /><rect fill="#35a79c" height="11.755102040816325px" rx="2px" stroke="#000000" stroke-width="1" width="11.755102040816325px" x="70.5781353344961" y="138.01925399805663" /><rect fill="#35a79c" height="11.755102040816325px" rx="2px" stroke="#000000" stroke-width="1" width="11.755102040816325px" x="85.95439359737681" y="138.22248697261557" /><rect fill="#65c3ba" height="10.448979591836736px" rx="2px" stroke="#000000" stroke-width="1" width="10.448979591836736px" x="104.27117347021161" y="138.5594428585557" /><rect fill="#54b2a9" height="10.448979591836736px" rx="2px" stroke="#000000" stroke-width="1" width="10.448979591836736px" x="103.44550960144703" y="139.48476859562805" /><rect fill="#54b2a9" height="7.836734693877551px" rx="2px" stroke="#000000" stroke-width="1" width="7.836734693877551px" x="120.6185943954358" y="137.1278597505529" /><rect fill="#35a79c" height="7.836734693877551px" rx="2px" stroke="#000000" stroke-width="1" width="7.836734693877551px" x="120.55156304795979" y="141.70324325020113" /><rect fill="#54b2a9" height="7.836734693877551px" rx="2px" stroke="#000000" stroke-width="1" width="7.836734693877551px" x="119.89982140044884" y="141.01542583283617" /><rect fill="#65c3ba" height="7.836734693877551px" rx="2px" stroke="#000000" stroke-width="1" width="7.836734693877551px" x="118.11856576451804" y="140.60754177212067" /><rect fill="#83d0c9" height="6.530612244897959px" rx="2px" stroke="#000000" stroke-width="1" width="6.530612244897959px" x="59.16170115094581" y="153.0085977691022" /><rect fill="#83d0c9" height="6.530612244897959px" rx="2px" stroke="#000000" stroke-width="1" width="6.530612244897959px" x="56.45068045435642" y="153.40487133158945" /><rect fill="#65c3ba" height="6.530612244897959px" rx="2px" stroke="#000000" stroke-width="1" width="6.530612244897959px" x="55.70227031529619" y="158.65016723233347" /><rect fill="#83d0c9" height="6.530612244897959px" rx="2px" stroke="#000000" stroke-width="1" width="6.530612244897959px" x="58.676664004047595" y="154.52045541298367" /><rect fill="#65c3ba" height="6.530612244897959px" rx="2px" stroke="#000000" stroke-width="1" width="6.530612244897959px" x="53.978588608078844" y="155.15140136868834" /><rect fill="#83d0c9" height="6.530612244897959px" rx="2px" stroke="#000000" stroke-width="1" width="6.530612244897959px" x="53.906978500218756" y="160.2688109100151" /><rect fill="#65c3ba" height="7.836734693877551px" rx="2px" stroke="#000000" stroke-width="1" width="7.836734693877551px" x="73.34763902525731" y="155.56077721564236" /><rect fill="#83d0c9" height="7.836734693877551px" rx="2px" stroke="#000000" stroke-width="1" width="7.836734693877551px" x="75.04150773563714" y="154.5021782374427" /><rect fill="#83d0c9" height="7.836734693877551px" rx="2px" stroke="#000000" stroke-width="1" width="7.836734693877551px" x="69.89146682617661" y="154.1747822862505" /><rect fill="#009688" height="7.836734693877551px" rx="2px" stroke="#000000" stroke-width="1" width="7.836734693877551px" x="72.13242345430723" y="158.41952100110686" /><rect fill="#54b2a9" height="7.836734693877551px" rx="2px" stroke="#000000" stroke-width="1" width="7.836734693877551px" x="87.75219005508255" y="155.9851244578902" /><rect fill="#65c3ba" height="7.836734693877551px" rx="2px" stroke="#000000" stroke-width="1" width="7.836734693877551px" x="88.40161346847724" y="156.34930365333713" /><rect fill="#35a79c" height="7.836734693877551px" rx="2px" stroke="#000000" stroke-width="1" width="7.836734693877551px" x="90.74941594338793" y="158.35958588442222" /><rect fill="#65c3ba" height="7.836734693877551px" rx="2px" stroke="#000000" stroke-width="1" width="7.836734693877551px" x="88.52414056896816" y="154.4395073206017" /><rect fill="#35a79c" height="6.530612244897959px" rx="2px" stroke="#000000" stroke-width="1" width="6.530612244897959px" x="104.06228928218712" y="157.8908156218888" /><rect fill="#54b2a9" height="6.530612244897959px" rx="2px" stroke="#000000" stroke-width="1" width="6.530612244897959px" x="101.5589212011673" y="158.8375154409373" /><rect fill="#009688" height="6.530612244897959px" rx="2px" stroke="#000000" stroke-width="1" width="6.530612244897959px" x="103.528845135976" y="158.17407924658772" /><rect fill="#83d0c9" height="6.530612244897959px" rx="2px" stroke="#000000" stroke-width="1" width="6.530612244897959px" x="107.36216524490517" y="159.3664679425126" /><rect fill="#65c3ba" height="6.530612244897959px" rx="2px" stroke="#000000" stroke-width="1" width="6.530612244897959px" x="103.83843754067942" y="155.3652649457066" /><rect fill="#009688" height="6.530612244897959px" rx="2px" stroke="#000000" stroke-width="1" width="6.530612244897959px" x="107.5161670279156" y="153.2681442967468" /><g style="font-size:40px; font-family:Arial; font-weight: bold; font-style: italic;"><text fill="#000000" x="180" y="120">gelanis</text></g></svg>