<?xml version="1.0" encoding="utf-8" ?>
<svg baseProfile="full" height="200px" version="1.1" width="600px" xmlns="http://www.w3.org/2000/svg" xmlns:ev="http://www.w3.org/2001/xml-events" xmlns:xlink="http://www.w3.org/1999/xlink"><defs /><rect fill="#83d0c9" height="6.530612244897959px" rx="2px" stroke="#000000" stroke-width="1" width="6.530612244897959px" x="53.58858923462685" y="43.189862265204" /><rect fill="#35a79c" height="6.530612244897959px" rx="2px" stroke="#000000" stroke-width="1" width="6.530612244897959px" x="59.613782443772884" y="43.70119223626762" /><rect fill="#35a79c" height="6.530612244897959px" rx="2px" stroke="#000000" stroke-width="1" width="6.530612244897959px" x="58.26272024601351" y="41.3422800901627" /><rect fill="#35a79c" height="6.530612244897959px" rx="2px" stroke="#000000" stroke-width="1" width="6.530612244897959px" x="58.774347198544106" y="48.359001562486476" /><rect fill="#65c3ba" height="6.530612244897959px" rx="2px" stroke="#000000" stroke-width="1" width="6.530612244897959px" x="59.47210249045773" y="43.83931017070071" /><rect fill="#54b2a9" height="6.530612244897959px" rx="2px" stroke="#000000" stroke-width="1" width="6.530612244897959px" x="57.74817360409736" y="43.72507301026634" /><rect fill="#83d0c9" height="7.836734693877551px" rx="2px" stroke="#000000" stroke-width="1" width="7.836734693877551px" x="69.8805555166021" y="41.860578704014344" /><rect fill="#65c3ba" height="7.836734693877551px" rx="2px" stroke="#000000" stroke-width="1" width="7.836734693877551px" x="72.32186003019433" y="45.60404430855065" /><rect fill="#35a79c" height="7.836734693877551px" rx="2px" stroke="#000000" stroke-width="1" width="7.836734693877551px" x="74.53352062954997" y="43.46161127657959" /><rect fill="#65c3ba" height="7.836734693877551px" rx="2px" stroke="#000000" stroke-width="1" width="7.836734693877551px" x="75.14678336638218" y="41.852575244021196" /><rect fill="#83d0c9" height="7.836734693877551px" rx="2px" stroke="#000000" stroke-width="1" width="7.836734693877551px" x="90.99000420119948" y="45.696175185994356" /><rect fill="#54b2a9" height="7.836734693877551px" rx="2px" stroke="#000000" stroke-width="1" width="7.836734693877551px" x="90.62476749963542" y="46.36523689981028" /><rect fill="#35a79c" height="7.836734693877551px" rx="2px" stroke="#000000" stroke-width="1" width="7.836734693877551px" x="90.18743149281806" y="44.12886102769889" /><rect fill="#83d0c9" height="7.836734693877551px" rx="2px" stroke="#000000" stroke-width="1" width="7.836734693877551px" x="85.9419889612651" y="45.69955635964685" /><rect fill="#35a79c" height="6.530612244897959px" rx="2px" stroke="#000000" stroke-width="1" width="6.530612244897959px" x="105.39430593786423" y="42.71881616592545" /><rect fill="#009688" height="6.530612244897959px" rx="2px" stroke="#000000" stroke-width="1" width="6.530612244897959px" x="101.05371116466416" y="46.28713849870886" /><rect fill="#54b2a9" height="6.530612244897959px" rx="2px" stroke="#000000" stroke-width="1" width="6.530612244897959px" x="102.71005495663026" y="47.762933158372306" /><rect fill="#65c3ba" height="6.530612244897959px" rx="2px" stroke="#000000" stroke-width="1" width="6.530612244897959px" x="101.52926102161729" y="42.77774890161331" /><rect fill="#83d0c9" height="6.530612244897959px" rx="2px" stroke="#000000" stroke-width="1" width="6.530612244897959px" x="102.60021778566491" y="41.988288502721616" /><rect fill="#65c3ba" height="6.530612244897959px" rx="2px" stroke="#000000" stroke-width="1" width="6.530612244897959px" x="105.30394824077244" y="42.815040626874186" /><rect fill="#54b2a9" height="3.9183673469387763px" rx="2px" stroke="#000000" stroke-width="1" width="3.9183673469387763px" x="125.88054901634901" y="49.86447958749723" /><rect fill="#83d0c9" height="3.9183673469387763px" rx="2px" stroke="#000000" stroke-width="1" width="3.9183673469387763px" x="119.87313818900058" y="45.41761589930222" /><rect fill="#83d0c9" height="3.9183673469387763px" rx="2px" stroke="#000000" stroke-width="1" width="3.9183673469387763px" x="124.09283108149309" y="47.16671053609427" /><rect fill="#54b2a9" height="3.9183673469387763px" rx="2px" stroke="#000000" stroke-width="1" width="3.9183673469387763px" x="117.07886969251359" y="49.23774372953139" /><rect fill="#35a79c" height="3.9183673469387763px" rx="2px" stroke="#000000" stroke-width="1" width="3.9183673469387763px" x="126.39362211186577" y="42.04432106015503" /><rect fill="#83d0c9" height="3.9183673469387763px" rx="2px" stroke="#000000" stroke-width="1" width="3.9183673469387763px" x="119.66624826968655" y="49.96975667879225" /><rect fill="#35a79c" height="3.9183673469387763px" rx="2px" stroke="#000000" stroke-width="1" width="3.9183673469387763px" x="118.56716872303765" y="43.84056322653469" /><rect fill="#54b2a9" height="3.9183673469387763px" rx="2px" stroke="#000000" stroke-width="1" width="3.9183673469387763px" x="124.23470245809318" y="43.05259331203595" /><rect fill="#009688" height="3.9183673469387763px" rx="2px" stroke="#000000" stroke-width="1" width="3.9183673469387763px" x="122.09534846327358" y="43.53171221474546" /><rect fill="#54b2a9" height="3.9183673469387763px" rx="2px" stroke="#000000" stroke-width="1" width="3.9183673469387763px" x="117.93051924592021" y="45.2703353397241" /><rect fill="#35a79c" height="3.9183673469387763px" rx="2px" stroke="#000000" stroke-width="1" width="3.9183673469387763px" x="117.44446653732103" y="44.362794491243136" /><rect fill="#65c3ba" height="3.9183673469387763px" rx="2px" stroke="#000000" stroke-width="1" width="3.9183673469387763px" x="123.4231430283037" y="43.64093672739935" /><rect fill="#009688" height="3.9183673469387763px" rx="2px" stroke="#000000" stroke-width="1" width="3.9183673469387763px" x="122.5618393476824" y="45.31178240768277" /><rect fill="#35a79c" height="3.9183673469387763px" rx="2px" stroke="#000000" stroke-width="1" width="3.9183673469387763px" x="118.12787136757412" y="50.52765640589877" /><rect fill="#83d0c9" height="3.9183673469387763px" rx="2px" stroke="#000000" stroke-width="1" width="3.9183673469387763px" x="122.50044087484751" y="49.41408040456515" /><rect fill="#009688" height="3.9183673469387763px" rx="2px" stroke="#000000" stroke-width="1" width="3.9183673469387763px" x="122.57035505698018" y="45.33295175843064" /><rect fill="#009688" height="7.836734693877551px" rx="2px" stroke="#000000" stroke-width="1" width="7.836734693877551px" x="38.64439437341899" y="61.85279799507984" /><rect fill="#65c3ba" height="7.836734693877551px" rx="2px" stroke="#000000" stroke-width="1" width="7.836734693877551px" x="39.357706127026006" y="57.23867003091975" /><rect fill="#65c3ba" height="7.836734693877551px" rx="2px" stroke="#000000" stroke-width="1" width="7.836734693877551px" x="38.370918014261036" y="62.032839895719846" /><rect fill="#35a79c" height="7.836734693877551px" rx="2px" stroke="#000000" stroke-width="1" width="7.836734693877551px" x="39.15503763638097" y="62.0571834092533" /><rect fill="#54b2a9" height="10.448979591836736px" rx="2px" stroke="#000000" stroke-width="1" width="10.448979591836736px" x="53.634097959469564" y="60.41797899882675" /><rect fill="#54b2a9" height="10.448979591836736px" rx="2px" stroke="#000000" stroke-width="1" width="10.448979591836736px" x="53.13585208856057" y="59.11843670138505" /><rect fill="#83d0c9" height="11.755102040816325px" rx="2px" stroke="#000000" stroke-width="1" width="11.755102040816325px" x="69.09964323894806" y="57.97890462653157" /><rect fill="#009688" height="11.755102040816325px" rx="2px" stroke="#000000" stroke-width="1" width="11.755102040816325px" x="86.39892030804296" y="58.489237191616525" /><rect fill="#009688" height="10.448979591836736px" rx="2px" stroke="#000000" stroke-width="1" width="10.448979591836736px" x="103.02090437442145" y="58.441981211508576" /><rect fill="#83d0c9" height="10.448979591836736px" rx="2px" stroke="#000000" stroke-width="1" width="10.448979591836736px" x="102.0790661463815" y="57.746363003460814" /><rect fill="#65c3ba" height="7.836734693877551px" rx="2px" stroke="#000000" stroke-width="1" width="7.836734693877551px" x="121.42735645878969" y="59.36656116637981" /><rect fill="#009688" height="7.836734693877551px" rx="2px" stroke="#000000" stroke-width="1" width="7.836734693877551px" x="118.50374083168752" y="61.04345957868895" /><rect fill="#009688" height="7.836734693877551px" rx="2px" stroke="#000000" stroke-width="1" width="7.836734693877551px" x="122.50169933705781" y="62.30312348484901" /><rect fill="#83d0c9" height="7.836734693877551px" rx="2px" stroke="#000000" stroke-width="1" width="7.836734693877551px" x="121.79761148660678" y="58.348775986067764" /><rect fill="#35a79c" height="3.9183673469387763px" rx="2px" stroke="#000000" stroke-width="1" width="3.9183673469387763px" x="140.6039020980695" y="66.57363665227956" /><rect fill="#35a79c" height="3.9183673469387763px" rx="2px" stroke="#000000" stroke-width="1" width="3.9183673469387763px" x="141.4607969400937" y="63.26407784395025" /><rect fill="#83d0c9" height="3.9183673469387763px" rx="2px" stroke="#000000" stroke-width="1" width="3.9183673469387763px" x="134.27251350179301" y="63.74923814780073" /><rect fill="#54b2a9" height="3.9183673469387763px" rx="2px" stroke="#000000" stroke-width="1" width="3.9183673469387763px" x="142.55493814234745" y="61.68830179218365" /><rect fill="#83d0c9" height="3.9183673469387763px" rx="2px" stroke="#000000" stroke-width="1" width="3.9183673469387763px" x="140.73158490995883" y="58.69158850660601" /><rect fill="#35a79c" height="3.9183673469387763px" rx="2px" stroke="#000000" stroke-width="1" width="3.9183673469387763px" x="142.71601966502035" y="64.24221369237608" /><rect fill="#009688" height="3.9183673469387763px" rx="2px" stroke="#000000" stroke-width="1" width="3.9183673469387763px" x="142.72596044650692" y="58.08981188430322" /><rect fill="#65c3ba" height="3.9183673469387763px" rx="2px" stroke="#000000" stroke-width="1" width="3.9183673469387763px" x="142.3646992080228" y="62.80497109868842" /><rect fill="#009688" height="3.9183673469387763px" rx="2px" stroke="#000000" stroke-width="1" width="3.9183673469387763px" x="136.99892436957578" y="64.20851559784566" /><rect fill="#35a79c" height="3.9183673469387763px" rx="2px" stroke="#000000" stroke-width="1" width="3.9183673469387763px" x="138.96931313178422" y="65.37351810382606" /><rect fill="#83d0c9" height="3.9183673469387763px" rx="2px" stroke="#000000" stroke-width="1" width="3.9183673469387763px" x="134.02733152837374" y="64.7878685135899" /><rect fill="#83d0c9" height="3.9183673469387763px" rx="2px" stroke="#000000" stroke-width="1" width="3.9183673469387763px" x="141.1210370212491" y="65.02727030613275" /><rect fill="#65c3ba" height="3.9183673469387763px" rx="2px" stroke="#000000" stroke-width="1" width="3.9183673469387763px" x="140.89024206331314" y="60.50038081759946" /><rect fill="#54b2a9" height="3.9183673469387763px" rx="2px" stroke="#000000" stroke-width="1" width="3.9183673469387763px" x="139.66921514897047" y="57.695196486544944" /><rect fill="#65c3ba" height="3.9183673469387763px" rx="2px" stroke="#000000" stroke-width="1" width="3.9183673469387763px" x="133.1275543302435" y="61.234877917874755" /><rect fill="#65c3ba" height="3.9183673469387763px" rx="2px" stroke="#000000" stroke-width="1" width="3.9183673469387763px" x="134.06400412445174" y="66.68630731028574" /><rect fill="#009688" height="6.530612244897959px" rx="2px" stroke="#000000" stroke-width="1" width="6.530612244897959px" x="25.82449921030997" y="76.66613487017884" /><rect fill="#35a79c" height="6.530612244897959px" rx="2px" stroke="#000000" stroke-width="1" width="6.530612244897959px" x="21.695051557204284" y="74.6551894402642" /><rect fill="#65c3ba" height="6.530612244897959px" rx="2px" stroke="#000000" stroke-width="1" width="6.530612244897959px" x="23.28717157199209" y="77.34386416799279" /><rect fill="#83d0c9" height="6.530612244897959px" rx="2px" stroke="#000000" stroke-width="1" width="6.530612244897959px" x="25.134104112933702" y="75.56765727056143" /><rect fill="#54b2a9" height="6.530612244897959px" rx="2px" stroke="#000000" stroke-width="1" width="6.530612244897959px" x="23.4708084647696" y="78.24989609877534" /><rect fill="#35a79c" height="6.530612244897959px" rx="2px" stroke="#000000" stroke-width="1" width="6.530612244897959px" x="23.290286017013713" y="74.72197802276028" /><rect fill="#54b2a9" height="10.448979591836736px" rx="2px" stroke="#000000" stroke-width="1" width="10.448979591836736px" x="38.05197723690072" y="74.28149604146924" /><rect fill="#54b2a9" height="10.448979591836736px" rx="2px" stroke="#000000" stroke-width="1" width="10.448979591836736px" x="37.05024114086847" y="74.89672460270558" /><rect fill="#83d0c9" height="7.836734693877551px" rx="2px" stroke="#000000" stroke-width="1" width="7.836734693877551px" x="21.52499253746248" y="90.5296667035399" /><rect fill="#83d0c9" height="7.836734693877551px" rx="2px" stroke="#000000" stroke-width="1" width="7.836734693877551px" x="25.711467765071646" y="92.7368965443954" /><rect fill="#65c3ba" height="7.836734693877551px" rx="2px" stroke="#000000" stroke-width="1" width="7.836734693877551px" x="22.39096970191103" y="92.22075317570052" /><rect fill="#83d0c9" height="7.836734693877551px" rx="2px" stroke="#000000" stroke-width="1" width="7.836734693877551px" x="26.599353511069157" y="90.83266624531124" /><rect fill="#009688" height="11.755102040816325px" rx="2px" stroke="#000000" stroke-width="1" width="11.755102040816325px" x="38.4042174151985" y="89.59410354656941" /><rect fill="#54b2a9" height="15.673469387755102px" rx="2px" stroke="#000000" stroke-width="1" width="15.673469387755102px" x="84.21361585145652" y="88.94537820119928" /><rect fill="#65c3ba" height="14.36734693877551px" rx="2px" stroke="#000000" stroke-width="1" width="14.36734693877551px" x="100.75711643323754" y="88.65701974995879" /><rect fill="#83d0c9" height="11.755102040816325px" rx="2px" stroke="#000000" stroke-width="1" width="11.755102040816325px" x="118.77937025072582" y="90.33581314500275" /><rect fill="#54b2a9" height="7.836734693877551px" rx="2px" stroke="#000000" stroke-width="1" width="7.836734693877551px" x="23.899821400448843" y="109.01542583283619" /><rect fill="#65c3ba" height="7.836734693877551px" rx="2px" stroke="#000000" stroke-width="1" width="7.836734693877551px" x="22.118565764518042" y="108.60754177212065" /><rect fill="#65c3ba" height="7.836734693877551px" rx="2px" stroke="#000000" stroke-width="1" width="7.836734693877551px" x="26.972544516160053" y="107.89679876077605" /><rect fill="#35a79c" height="7.836734693877551px" rx="2px" stroke="#000000" stroke-width="1" width="7.836734693877551px" x="23.054268058915465" y="109.130210609702" /><rect fill="#009688" height="11.755102040816325px" rx="2px" stroke="#000000" stroke-width="1" width="11.755102040816325px" x="37.19768524908851" y="105.56660966538047" /><rect fill="#83d0c9" height="15.673469387755102px" rx="2px" stroke="#000000" stroke-width="1" width="15.673469387755102px" x="68.90929112243077" y="104.13240754731062" /><rect fill="#009688" height="15.673469387755102px" rx="2px" stroke="#000000" stroke-width="1" width="15.673469387755102px" x="84.26682612661357" y="103.83149995126493" /><rect fill="#009688" height="14.36734693877551px" rx="2px" stroke="#000000" stroke-width="1" width="14.36734693877551px" x="100.79713213544964" y="104.96575988524353" /><rect fill="#65c3ba" height="11.755102040816325px" rx="2px" stroke="#000000" stroke-width="1" width="11.755102040816325px" x="118.58357712840498" y="105.9327334229161" /><rect fill="#35a79c" height="7.836734693877551px" rx="2px" stroke="#000000" stroke-width="1" width="7.836734693877551px" x="135.32484564025702" y="110.74941594338793" /><rect fill="#65c3ba" height="7.836734693877551px" rx="2px" stroke="#000000" stroke-width="1" width="7.836734693877551px" x="139.04477425841722" y="106.47182192526954" /><rect fill="#009688" height="7.836734693877551px" rx="2px" stroke="#000000" stroke-width="1" width="7.836734693877551px" x="134.4395073206017" y="109.77988635673421" /><rect fill="#65c3ba" height="7.836734693877551px" rx="2px" stroke="#000000" stroke-width="1" width="7.836734693877551px" x="134.96100511886954" y="107.91507811372664" /><rect fill="#65c3ba" height="6.530612244897959px" rx="2px" stroke="#000000" stroke-width="1" width="6.530612244897959px" x="28.450160975550506" y="126.5778875556343" /><rect fill="#009688" height="6.530612244897959px" rx="2px" stroke="#000000" stroke-width="1" width="6.530612244897959px" x="28.307583847524892" y="126.67949607420206" /><rect fill="#009688" height="6.530612244897959px" rx="2px" stroke="#000000" stroke-width="1" width="6.530612244897959px" x="24.314007140983353" y="126.18376378739437" /><rect fill="#54b2a9" height="6.530612244897959px" rx="2px" stroke="#000000" stroke-width="1" width="6.530612244897959px" x="21.343524378282854" y="126.94670424998714" /><rect fill="#35a79c" height="6.530612244897959px" rx="2px" stroke="#000000" stroke-width="1" width="6.530612244897959px" x="23.677501699631286" y="124.21696661949136" /><rect fill="#35a79c" height="6.530612244897959px" rx="2px" stroke="#000000" stroke-width="1" width="6.530612244897959px" x="24.967487192702983" y="125.22713613594352" /><rect fill="#35a79c" height="10.448979591836736px" rx="2px" stroke="#000000" stroke-width="1" width="10.448979591836736px" x="40.20021305522869" y="123.40621008391102" /><rect fill="#83d0c9" height="10.448979591836736px" rx="2px" stroke="#000000" stroke-width="1" width="10.448979591836736px" x="37.2622851152902" y="124.35655103017609" /><rect fill="#65c3ba" height="10.448979591836736px" rx="2px" stroke="#000000" stroke-width="1" width="10.448979591836736px" x="117.07790795974621" y="123.94748032040316" /><rect fill="#009688" height="10.448979591836736px" rx="2px" stroke="#000000" stroke-width="1" width="10.448979591836736px" x="117.9746854316533" y="123.00962548878147" /><rect fill="#009688" height="6.530612244897959px" rx="2px" stroke="#000000" stroke-width="1" width="6.530612244897959px" x="139.00712467610717" y="124.49814874122626" /><rect fill="#65c3ba" height="6.530612244897959px" rx="2px" stroke="#000000" stroke-width="1" width="6.530612244897959px" x="134.05136872432965" y="128.21916482986464" /><rect fill="#54b2a9" height="6.530612244897959px" rx="2px" stroke="#000000" stroke-width="1" width="6.530612244897959px" x="140.2249128063635" y="127.00977709615358" /><rect fill="#54b2a9" height="6.530612244897959px" rx="2px" stroke="#000000" stroke-width="1" width="6.530612244897959px" x="133.67450719302246" y="123.94723038939405" /><rect fill="#54b2a9" height="6.530612244897959px" rx="2px" stroke="#000000" stroke-width="1" width="6.530612244897959px" x="137.00786662911173" y="124.3969731867469" /><rect fill="#54b2a9" height="6.530612244897959px" rx="2px" stroke="#000000" stroke-width="1" width="6.530612244897959px" x="137.366305990708" y="127.14295371936734" /><rect fill="#35a79c" height="7.836734693877551px" rx="2px" stroke="#000000" stroke-width="1" width="7.836734693877551px" x="39.5831893781887" y="141.57480086651276" /><rect fill="#65c3ba" height="7.836734693877551px" rx="2px" stroke="#000000" stroke-width="1" width="7.836734693877551px" x="42.45704005587088" y="141.03645740904136" /><rect fill="#54b2a9" height="7.836734693877551px" rx="2px" stroke="#000000" stroke-width="1" width="7.836734693877551px" x="40.79442793149896" y="142.7876331805209" /><rect fill="#65c3ba" height="7.836734693877551px" rx="2px" stroke="#000000" stroke-width="1" width="7.836734693877551px" x="37.201639155718865" y="139.28367443954693" /><rect fill="#83d0c9" height="10.448979591836736px" rx="2px" stroke="#000000" stroke-width="1" width="10.448979591836736px" x="55.3535053147507" y="139.2787056591547" /><rect fill="#54b2a9" height="10.448979591836736px" rx="2px" stroke="#000000" stroke-width="1" width="10.448979591836736px" x="56.44837216937363" y="137.17960532357836" /><rect fill="#35a79c" height="11.755102040816325px" rx="2px" stroke="#000000" stroke-width="1" width="11.755102040816325px" x="70.31637018763209" y="138.82522097802686" /><rect fill="#35a79c" height="11.755102040816325px" rx="2px" stroke="#000000" stroke-width="1" width="11.755102040816325px" x="87.21689803020978" y="138.21272857663155" /><rect fill="#54b2a9" height="10.448979591836736px" rx="2px" stroke="#000000" stroke-width="1" width="10.448979591836736px" x="103.64787260930439" y="138.69115914252336" /><rect fill="#83d0c9" height="10.448979591836736px" rx="2px" stroke="#000000" stroke-width="1" width="10.448979591836736px" x="102.82251846171427" y="137.38725301511568" /><rect fill="#009688" height="7.836734693877551px" rx="2px" stroke="#000000" stroke-width="1" width="7.836734693877551px" x="119.79636849199576" y="140.73140593966662" /><rect fill="#83d0c9" height="7.836734693877551px" rx="2px" stroke="#000000" stroke-width="1" width="7.836734693877551px" x="121.88806163503463" y="137.7051642831405" /><rect fill="#65c3ba" height="7.836734693877551px" rx="2px" stroke="#000000" stroke-width="1" width="7.836734693877551px" x="121.44272764960398" y="138.32524420471233" /><rect fill="#65c3ba" height="7.836734693877551px" rx="2px" stroke="#000000" stroke-width="1" width="7.836734693877551px" x="122.47354058450051" y="139.5504428264373" /><rect fill="#83d0c9" height="6.530612244897959px" rx="2px" stroke="#000000" stroke-width="1" width="6.530612244897959px" x="55.74545601071874" y="158.69619716916094" /><rect fill="#83d0c9" height="6.530612244897959px" rx="2px" stroke="#000000" stroke-width="1" width="6.530612244897959px" x="54.689269969877394" y="156.20520698740268" /><rect fill="#83d0c9" height="6.530612244897959px" rx="2px" stroke="#000000" stroke-width="1" width="6.530612244897959px" x="60.27926645669407" y="159.1131475630997" /><rect fill="#83d0c9" height="6.530612244897959px" rx="2px" stroke="#000000" stroke-width="1" width="6.530612244897959px" x="58.041662782313246" y="157.15850511004865" /><rect fill="#54b2a9" height="6.530612244897959px" rx="2px" stroke="#000000" stroke-width="1" width="6.530612244897959px" x="59.93969082661524" y="159.19556426786198" /><rect fill="#54b2a9" height="6.530612244897959px" rx="2px" stroke="#000000" stroke-width="1" width="6.530612244897959px" x="53.21626253609029" y="155.0411624952828" /><rect fill="#65c3ba" height="7.836734693877551px" rx="2px" stroke="#000000" stroke-width="1" width="7.836734693877551px" x="70.67704201532567" y="157.0797037801652" /><rect fill="#35a79c" height="7.836734693877551px" rx="2px" stroke="#000000" stroke-width="1" width="7.836734693877551px" x="72.74157049484054" y="155.55272426205272" /><rect fill="#65c3ba" height="7.836734693877551px" rx="2px" stroke="#000000" stroke-width="1" width="7.836734693877551px" x="73.65291488546629" y="153.70148749896492" /><rect fill="#83d0c9" height="7.836734693877551px" rx="2px" stroke="#000000" stroke-width="1" width="7.836734693877551px" x="69.68344308580981" y="157.18003680950872" /><rect fill="#009688" height="7.836734693877551px" rx="2px" stroke="#000000" stroke-width="1" width="7.836734693877551px" x="87.6885370988718" y="155.83358742056316" /><rect fill="#83d0c9" height="7.836734693877551px" rx="2px" stroke="#000000" stroke-width="1" width="7.836734693877551px" x="90.313412736956" y="156.5485564600515" /><rect fill="#54b2a9" height="7.836734693877551px" rx="2px" stroke="#000000" stroke-width="1" width="7.836734693877551px" x="87.49256553307308" y="156.94536293984424" /><rect fill="#54b2a9" height="7.836734693877551px" rx="2px" stroke="#000000" stroke-width="1" width="7.836734693877551px" x="85.7098440519279" y="153.12854450664233" /><rect fill="#83d0c9" height="6.530612244897959px" rx="2px" stroke="#000000" stroke-width="1" width="6.530612244897959px" x="104.35304742979986" y="159.90286650141127" /><rect fill="#54b2a9" height="6.530612244897959px" rx="2px" stroke="#000000" stroke-width="1" width="6.530612244897959px" x="105.80275530664883" y="160.3687896504352" /><rect fill="#35a79c" height="6.530612244897959px" rx="2px" stroke="#000000" stroke-width="1" width="6.530612244897959px" x="107.45539502425099" y="157.68493001888402" /><rect fill="#54b2a9" height="6.530612244897959px" rx="2px" stroke="#000000" stroke-width="1" width="6.530612244897959px" x="104.28475899553311" y="156.50255339940108" /><rect fill="#54b2a9" height="6.530612244897959px" rx="2px" stroke="#000000" stroke-width="1" width="6.530612244897959px" x="106.94809515447801" y="157.41754348979907" /><rect fill="#65c3ba" height="6.530612244897959px" rx="2px" stroke="#000000" stroke-width="1" width="6.530612244897959px" x="104.78949591869508" y="155.3185565984063" /><g style="font-size:40px; font-family:Arial; font-weight: bold; font-style: italic;"><text fill="#35a79c" stroke="#000000" x="180" y="120">gelanis</text></g></svg>