<?xml version="1.0" encoding="utf-8" ?>
<svg baseProfile="full" height="200px" version="1.1" width="600px" xmlns="http://www.w3.org/2000/svg" xmlns:ev="http://www.w3.org/2001/xml-events" xmlns:xlink="http://www.w3.org/1999/xlink"><defs /><rect fill="#35a79c" height="6.530612244897959px" rx="2px" stroke="#000000" stroke-width="1" width="6.530612244897959px" x="59.04594994171601" y="41.04854175596266" /><rect fill="#35a79c" height="6.530612244897959px" rx="2px" stroke="#000000" stroke-width="1" width="6.530612244897959px" x="58.21467384827941" y="43.54146304174663" /><rect fill="#009688" height="6.530612244897959px" rx="2px" stroke="#000000" stroke-width="1" width="6.530612244897959px" x="54.60826197819138" y="46.70283369829363" /><rect fill="#54b2a9" height="6.530612244897959px" rx="2px" stroke="#000000" stroke-width="1" width="6.530612244897959px" x="53.69275466688029" y="41.72241212083771" /><rect fill="#65c3ba" height="6.530612244897959px" rx="2px" stroke="#000000" stroke-width="1" width="6.530612244897959px" x="57.509463826128204" y="47.02875404119231" /><rect fill="#65c3ba" height="6.530612244897959px" rx="2px" stroke="#000000" stroke-width="1" width="6.530612244897959px" x="57.00529554025348" y="48.26857897176428" /><rect fill="#54b2a9" height="7.836734693877551px" rx="2px" stroke="#000000" stroke-width="1" width="7.836734693877551px" x="70.4116840353706" y="41.197842319571826" /><rect fill="#83d0c9" height="7.836734693877551px" rx="2px" stroke="#000000" stroke-width="1" width="7.836734693877551px" x="71.47248501389272" y="41.40793793416096" /><rect fill="#65c3ba" height="7.836734693877551px" rx="2px" stroke="#000000" stroke-width="1" width="7.836734693877551px" x="74.40128618764788" y="42.939443265329395" /><rect fill="#65c3ba" height="7.836734693877551px" rx="2px" stroke="#000000" stroke-width="1" width="7.836734693877551px" x="71.43838436980246" y="46.6365994306458" /><rect fill="#009688" height="7.836734693877551px" rx="2px" stroke="#000000" stroke-width="1" width="7.836734693877551px" x="90.3052136749963" y="41.07076058421901" /><rect fill="#54b2a9" height="7.836734693877551px" rx="2px" stroke="#000000" stroke-width="1" width="7.836734693877551px" x="89.20156186624541" y="44.30949060782564" /><rect fill="#54b2a9" height="7.836734693877551px" rx="2px" stroke="#000000" stroke-width="1" width="7.836734693877551px" x="89.73707790331731" y="43.09659169092603" /><rect fill="#54b2a9" height="7.836734693877551px" rx="2px" stroke="#000000" stroke-width="1" width="7.836734693877551px" x="87.67957358575653" y="43.796419577784086" /><rect fill="#83d0c9" height="6.530612244897959px" rx="2px" stroke="#000000" stroke-width="1" width="6.530612244897959px" x="108.07237993412299" y="42.23339728539859" /><rect fill="#35a79c" height="6.530612244897959px" rx="2px" stroke="#000000" stroke-width="1" width="6.530612244897959px" x="107.51654067422865" y="44.16058134925561" /><rect fill="#35a79c" height="6.530612244897959px" rx="2px" stroke="#000000" stroke-width="1" width="6.530612244897959px" x="107.93841507017953" y="46.64136861160622" /><rect fill="#54b2a9" height="6.530612244897959px" rx="2px" stroke="#000000" stroke-width="1" width="6.530612244897959px" x="106.32529232758773" y="43.9802281999808" /><rect fill="#009688" height="6.530612244897959px" rx="2px" stroke="#000000" stroke-width="1" width="6.530612244897959px" x="104.27233940230018" y="44.86597464936788" /><rect fill="#009688" height="6.530612244897959px" rx="2px" stroke="#000000" stroke-width="1" width="6.530612244897959px" x="102.85170315513794" y="41.47823424602943" /><rect fill="#83d0c9" height="3.9183673469387763px" rx="2px" stroke="#000000" stroke-width="1" width="3.9183673469387763px" x="119.99129930192478" y="50.76617196519928" /><rect fill="#54b2a9" height="3.9183673469387763px" rx="2px" stroke="#000000" stroke-width="1" width="3.9183673469387763px" x="124.41743196575077" y="41.61455184304896" /><rect fill="#83d0c9" height="3.9183673469387763px" rx="2px" stroke="#000000" stroke-width="1" width="3.9183673469387763px" x="117.57631928196524" y="46.88946391148432" /><rect fill="#009688" height="3.9183673469387763px" rx="2px" stroke="#000000" stroke-width="1" width="3.9183673469387763px" x="126.26892331900092" y="46.3546185882377" /><rect fill="#35a79c" height="3.9183673469387763px" rx="2px" stroke="#000000" stroke-width="1" width="3.9183673469387763px" x="126.68621996362405" y="41.80765436385408" /><rect fill="#35a79c" height="3.9183673469387763px" rx="2px" stroke="#000000" stroke-width="1" width="3.9183673469387763px" x="117.69080690521783" y="41.68515645933927" /><rect fill="#83d0c9" height="3.9183673469387763px" rx="2px" stroke="#000000" stroke-width="1" width="3.9183673469387763px" x="121.07071678267815" y="50.49282626226878" /><rect fill="#83d0c9" height="3.9183673469387763px" rx="2px" stroke="#000000" stroke-width="1" width="3.9183673469387763px" x="119.48225268995063" y="46.99372371113306" /><rect fill="#83d0c9" height="3.9183673469387763px" rx="2px" stroke="#000000" stroke-width="1" width="3.9183673469387763px" x="117.8265265778463" y="47.62739476019237" /><rect fill="#35a79c" height="3.9183673469387763px" rx="2px" stroke="#000000" stroke-width="1" width="3.9183673469387763px" x="122.27050329536301" y="50.423365129016226" /><rect fill="#54b2a9" height="3.9183673469387763px" rx="2px" stroke="#000000" stroke-width="1" width="3.9183673469387763px" x="123.75193125584276" y="44.16748629022479" /><rect fill="#54b2a9" height="3.9183673469387763px" rx="2px" stroke="#000000" stroke-width="1" width="3.9183673469387763px" x="120.9901675166302" y="47.77173408453522" /><rect fill="#009688" height="3.9183673469387763px" rx="2px" stroke="#000000" stroke-width="1" width="3.9183673469387763px" x="121.60957018060823" y="50.366021548214775" /><rect fill="#83d0c9" height="3.9183673469387763px" rx="2px" stroke="#000000" stroke-width="1" width="3.9183673469387763px" x="117.0939150143024" y="47.26229943293036" /><rect fill="#35a79c" height="3.9183673469387763px" rx="2px" stroke="#000000" stroke-width="1" width="3.9183673469387763px" x="127.04227847429422" y="41.73858767802487" /><rect fill="#54b2a9" height="3.9183673469387763px" rx="2px" stroke="#000000" stroke-width="1" width="3.9183673469387763px" x="122.10014365020592" y="42.335378484919076" /><rect fill="#35a79c" height="7.836734693877551px" rx="2px" stroke="#000000" stroke-width="1" width="7.836734693877551px" x="41.61922935847651" y="62.705728049306245" /><rect fill="#35a79c" height="7.836734693877551px" rx="2px" stroke="#000000" stroke-width="1" width="7.836734693877551px" x="42.32879429098835" y="63.01661677439083" /><rect fill="#54b2a9" height="7.836734693877551px" rx="2px" stroke="#000000" stroke-width="1" width="7.836734693877551px" x="42.43240191445559" y="57.1527649243521" /><rect fill="#35a79c" height="7.836734693877551px" rx="2px" stroke="#000000" stroke-width="1" width="7.836734693877551px" x="41.8220555476854" y="59.537497475481004" /><rect fill="#83d0c9" height="10.448979591836736px" rx="2px" stroke="#000000" stroke-width="1" width="10.448979591836736px" x="54.24692707062039" y="58.80890994983426" /><rect fill="#54b2a9" height="10.448979591836736px" rx="2px" stroke="#000000" stroke-width="1" width="10.448979591836736px" x="54.175919940189935" y="57.09801006348606" /><rect fill="#54b2a9" height="11.755102040816325px" rx="2px" stroke="#000000" stroke-width="1" width="11.755102040816325px" x="69.86472444220246" y="58.29438132213522" /><rect fill="#54b2a9" height="11.755102040816325px" rx="2px" stroke="#000000" stroke-width="1" width="11.755102040816325px" x="85.81764003869263" y="57.157084065793754" /><rect fill="#65c3ba" height="10.448979591836736px" rx="2px" stroke="#000000" stroke-width="1" width="10.448979591836736px" x="101.68122808531196" y="59.361177990878005" /><rect fill="#83d0c9" height="10.448979591836736px" rx="2px" stroke="#000000" stroke-width="1" width="10.448979591836736px" x="103.40516984647869" y="60.20588091749937" /><rect fill="#35a79c" height="7.836734693877551px" rx="2px" stroke="#000000" stroke-width="1" width="7.836734693877551px" x="121.14661821445438" y="58.38452002308533" /><rect fill="#65c3ba" height="7.836734693877551px" rx="2px" stroke="#000000" stroke-width="1" width="7.836734693877551px" x="117.90818156322905" y="57.28482740538802" /><rect fill="#65c3ba" height="7.836734693877551px" rx="2px" stroke="#000000" stroke-width="1" width="7.836734693877551px" x="120.76744367070052" y="61.73640368118489" /><rect fill="#35a79c" height="7.836734693877551px" rx="2px" stroke="#000000" stroke-width="1" width="7.836734693877551px" x="119.55430990451656" y="60.881411122097745" /><rect fill="#54b2a9" height="3.9183673469387763px" rx="2px" stroke="#000000" stroke-width="1" width="3.9183673469387763px" x="137.80873444659866" y="66.50437507698865" /><rect fill="#65c3ba" height="3.9183673469387763px" rx="2px" stroke="#000000" stroke-width="1" width="3.9183673469387763px" x="140.59625942406808" y="65.60414872614567" /><rect fill="#83d0c9" height="3.9183673469387763px" rx="2px" stroke="#000000" stroke-width="1" width="3.9183673469387763px" x="138.42614204896847" y="64.40631073497227" /><rect fill="#54b2a9" height="3.9183673469387763px" rx="2px" stroke="#000000" stroke-width="1" width="3.9183673469387763px" x="142.05140419622862" y="61.92215024305763" /><rect fill="#54b2a9" height="3.9183673469387763px" rx="2px" stroke="#000000" stroke-width="1" width="3.9183673469387763px" x="137.39393820749058" y="57.29261757252402" /><rect fill="#35a79c" height="3.9183673469387763px" rx="2px" stroke="#000000" stroke-width="1" width="3.9183673469387763px" x="139.7433381344433" y="65.04657771966475" /><rect fill="#83d0c9" height="3.9183673469387763px" rx="2px" stroke="#000000" stroke-width="1" width="3.9183673469387763px" x="141.47366933781439" y="66.27048082878518" /><rect fill="#83d0c9" height="3.9183673469387763px" rx="2px" stroke="#000000" stroke-width="1" width="3.9183673469387763px" x="138.38483822426647" y="66.14332363505844" /><rect fill="#65c3ba" height="3.9183673469387763px" rx="2px" stroke="#000000" stroke-width="1" width="3.9183673469387763px" x="138.68999264518854" y="57.27323287534927" /><rect fill="#009688" height="3.9183673469387763px" rx="2px" stroke="#000000" stroke-width="1" width="3.9183673469387763px" x="134.3680723814673" y="61.654674109417286" /><rect fill="#65c3ba" height="3.9183673469387763px" rx="2px" stroke="#000000" stroke-width="1" width="3.9183673469387763px" x="135.6228003893089" y="60.30024933610646" /><rect fill="#65c3ba" height="3.9183673469387763px" rx="2px" stroke="#000000" stroke-width="1" width="3.9183673469387763px" x="136.29513933900748" y="64.67443827958468" /><rect fill="#65c3ba" height="3.9183673469387763px" rx="2px" stroke="#000000" stroke-width="1" width="3.9183673469387763px" x="135.8052809821545" y="66.5896905145126" /><rect fill="#009688" height="3.9183673469387763px" rx="2px" stroke="#000000" stroke-width="1" width="3.9183673469387763px" x="135.54330891225501" y="57.825748550699004" /><rect fill="#54b2a9" height="3.9183673469387763px" rx="2px" stroke="#000000" stroke-width="1" width="3.9183673469387763px" x="140.55138744846792" y="57.52510796881976" /><rect fill="#009688" height="3.9183673469387763px" rx="2px" stroke="#000000" stroke-width="1" width="3.9183673469387763px" x="135.26052550746033" y="57.69178520415649" /><rect fill="#35a79c" height="6.530612244897959px" rx="2px" stroke="#000000" stroke-width="1" width="6.530612244897959px" x="21.214371411915362" y="79.35609669572163" /><rect fill="#54b2a9" height="6.530612244897959px" rx="2px" stroke="#000000" stroke-width="1" width="6.530612244897959px" x="24.641699495004737" y="75.65032525756021" /><rect fill="#54b2a9" height="6.530612244897959px" rx="2px" stroke="#000000" stroke-width="1" width="6.530612244897959px" x="23.542122787716895" y="79.57545127737777" /><rect fill="#35a79c" height="6.530612244897959px" rx="2px" stroke="#000000" stroke-width="1" width="6.530612244897959px" x="25.151418698338116" y="76.85888926791155" /><rect fill="#65c3ba" height="6.530612244897959px" rx="2px" stroke="#000000" stroke-width="1" width="6.530612244897959px" x="21.639476409727262" y="78.37851687881908" /><rect fill="#65c3ba" height="6.530612244897959px" rx="2px" stroke="#000000" stroke-width="1" width="6.530612244897959px" x="25.146826396713493" y="74.79507266574414" /><rect fill="#83d0c9" height="10.448979591836736px" rx="2px" stroke="#000000" stroke-width="1" width="10.448979591836736px" x="39.57301612633043" y="76.4679514690133" /><rect fill="#35a79c" height="10.448979591836736px" rx="2px" stroke="#000000" stroke-width="1" width="10.448979591836736px" x="39.11921609896205" y="76.48181325919342" /><rect fill="#009688" height="7.836734693877551px" rx="2px" stroke="#000000" stroke-width="1" width="7.836734693877551px" x="22.556091304670975" y="94.31102725137774" /><rect fill="#009688" height="7.836734693877551px" rx="2px" stroke="#000000" stroke-width="1" width="7.836734693877551px" x="26.06691683429445" y="91.46966627673645" /><rect fill="#35a79c" height="7.836734693877551px" rx="2px" stroke="#000000" stroke-width="1" width="7.836734693877551px" x="24.556334474575245" y="93.23077974516974" /><rect fill="#54b2a9" height="7.836734693877551px" rx="2px" stroke="#000000" stroke-width="1" width="7.836734693877551px" x="21.91954429614375" y="92.46892976162323" /><rect fill="#35a79c" height="11.755102040816325px" rx="2px" stroke="#000000" stroke-width="1" width="11.755102040816325px" x="39.15534623505659" y="89.22276924949442" /><rect fill="#83d0c9" height="15.673469387755102px" rx="2px" stroke="#000000" stroke-width="1" width="15.673469387755102px" x="84.99552226013395" y="88.24609584125201" /><rect fill="#83d0c9" height="14.36734693877551px" rx="2px" stroke="#000000" stroke-width="1" width="14.36734693877551px" x="100.66060410610845" y="88.71059378612978" /><rect fill="#35a79c" height="11.755102040816325px" rx="2px" stroke="#000000" stroke-width="1" width="11.755102040816325px" x="118.85570260329605" y="89.16030779702325" /><rect fill="#35a79c" height="7.836734693877551px" rx="2px" stroke="#000000" stroke-width="1" width="7.836734693877551px" x="24.720847338074798" y="105.15941219390362" /><rect fill="#83d0c9" height="7.836734693877551px" rx="2px" stroke="#000000" stroke-width="1" width="7.836734693877551px" x="26.928513323719116" y="110.15223472244217" /><rect fill="#54b2a9" height="7.836734693877551px" rx="2px" stroke="#000000" stroke-width="1" width="7.836734693877551px" x="24.618594395435807" y="105.12785975055289" /><rect fill="#35a79c" height="7.836734693877551px" rx="2px" stroke="#000000" stroke-width="1" width="7.836734693877551px" x="24.55156304795979" y="109.70324325020113" /><rect fill="#65c3ba" height="11.755102040816325px" rx="2px" stroke="#000000" stroke-width="1" width="11.755102040816325px" x="38.82637273104443" y="106.23491075483462" /><rect fill="#65c3ba" height="15.673469387755102px" rx="2px" stroke="#000000" stroke-width="1" width="15.673469387755102px" x="67.8994254756813" y="104.09198622985123" /><rect fill="#54b2a9" height="15.673469387755102px" rx="2px" stroke="#000000" stroke-width="1" width="15.673469387755102px" x="84.55308956044121" y="104.78075337196047" /><rect fill="#009688" height="14.36734693877551px" rx="2px" stroke="#000000" stroke-width="1" width="14.36734693877551px" x="100.73926345200398" y="104.88584688793715" /><rect fill="#83d0c9" height="11.755102040816325px" rx="2px" stroke="#000000" stroke-width="1" width="11.755102040816325px" x="118.11880215342431" y="106.6087013440632" /><rect fill="#54b2a9" height="7.836734693877551px" rx="2px" stroke="#000000" stroke-width="1" width="7.836734693877551px" x="138.05726410004172" y="106.74321169288599" /><rect fill="#65c3ba" height="7.836734693877551px" rx="2px" stroke="#000000" stroke-width="1" width="7.836734693877551px" x="138.16158629851304" y="108.57422167209772" /><rect fill="#65c3ba" height="7.836734693877551px" rx="2px" stroke="#000000" stroke-width="1" width="7.836734693877551px" x="138.33283060407086" y="107.75219005508255" /><rect fill="#83d0c9" height="7.836734693877551px" rx="2px" stroke="#000000" stroke-width="1" width="7.836734693877551px" x="135.12709041614875" y="108.40161346847724" /><rect fill="#54b2a9" height="6.530612244897959px" rx="2px" stroke="#000000" stroke-width="1" width="6.530612244897959px" x="21.558921201167294" y="126.83751544093728" /><rect fill="#009688" height="6.530612244897959px" rx="2px" stroke="#000000" stroke-width="1" width="6.530612244897959px" x="23.528845135976" y="126.17407924658774" /><rect fill="#83d0c9" height="6.530612244897959px" rx="2px" stroke="#000000" stroke-width="1" width="6.530612244897959px" x="27.362165244905164" y="127.36646794251259" /><rect fill="#65c3ba" height="6.530612244897959px" rx="2px" stroke="#000000" stroke-width="1" width="6.530612244897959px" x="23.838437540679422" y="123.36526494570661" /><rect fill="#009688" height="6.530612244897959px" rx="2px" stroke="#000000" stroke-width="1" width="6.530612244897959px" x="27.516167027915596" y="121.2681442967468" /><rect fill="#54b2a9" height="6.530612244897959px" rx="2px" stroke="#000000" stroke-width="1" width="6.530612244897959px" x="22.75358997908857" y="126.1120458006646" /><rect fill="#54b2a9" height="10.448979591836736px" rx="2px" stroke="#000000" stroke-width="1" width="10.448979591836736px" x="37.508213944946135" y="122.63755275354632" /><rect fill="#65c3ba" height="10.448979591836736px" rx="2px" stroke="#000000" stroke-width="1" width="10.448979591836736px" x="38.63194422156635" y="123.3679649960075" /><rect fill="#65c3ba" height="10.448979591836736px" rx="2px" stroke="#000000" stroke-width="1" width="10.448979591836736px" x="120.03021162871168" y="121.3787279292141" /><rect fill="#54b2a9" height="10.448979591836736px" rx="2px" stroke="#000000" stroke-width="1" width="10.448979591836736px" x="119.03090915242916" y="123.04116889492009" /><rect fill="#54b2a9" height="6.530612244897959px" rx="2px" stroke="#000000" stroke-width="1" width="6.530612244897959px" x="135.7252900262943" y="121.98156573775302" /><rect fill="#35a79c" height="6.530612244897959px" rx="2px" stroke="#000000" stroke-width="1" width="6.530612244897959px" x="135.4403918369659" y="124.10355371818923" /><rect fill="#54b2a9" height="6.530612244897959px" rx="2px" stroke="#000000" stroke-width="1" width="6.530612244897959px" x="133.9871527750066" y="125.02904570996526" /><rect fill="#35a79c" height="6.530612244897959px" rx="2px" stroke="#000000" stroke-width="1" width="6.530612244897959px" x="136.96514221990242" y="127.8231884216388" /><rect fill="#65c3ba" height="6.530612244897959px" rx="2px" stroke="#000000" stroke-width="1" width="6.530612244897959px" x="134.91940920306436" y="127.15992798756166" /><rect fill="#54b2a9" height="6.530612244897959px" rx="2px" stroke="#000000" stroke-width="1" width="6.530612244897959px" x="140.22576677300108" y="123.20452592647209" /><rect fill="#009688" height="7.836734693877551px" rx="2px" stroke="#000000" stroke-width="1" width="7.836734693877551px" x="37.719104752889194" y="137.27948442706207" /><rect fill="#009688" height="7.836734693877551px" rx="2px" stroke="#000000" stroke-width="1" width="7.836734693877551px" x="38.87587968317375" y="140.03617622309017" /><rect fill="#65c3ba" height="7.836734693877551px" rx="2px" stroke="#000000" stroke-width="1" width="7.836734693877551px" x="38.447134893760435" y="140.31304234645967" /><rect fill="#83d0c9" height="7.836734693877551px" rx="2px" stroke="#000000" stroke-width="1" width="7.836734693877551px" x="39.795926828172355" y="141.13238445087248" /><rect fill="#009688" height="10.448979591836736px" rx="2px" stroke="#000000" stroke-width="1" width="10.448979591836736px" x="53.215014602346734" y="137.979660626733" /><rect fill="#009688" height="10.448979591836736px" rx="2px" stroke="#000000" stroke-width="1" width="10.448979591836736px" x="56.36995667668596" y="139.92671935216515" /><rect fill="#35a79c" height="11.755102040816325px" rx="2px" stroke="#000000" stroke-width="1" width="11.755102040816325px" x="69.15402279205468" y="138.7177002315866" /><rect fill="#35a79c" height="11.755102040816325px" rx="2px" stroke="#000000" stroke-width="1" width="11.755102040816325px" x="85.00636552373065" y="138.92703416126162" /><rect fill="#009688" height="10.448979591836736px" rx="2px" stroke="#000000" stroke-width="1" width="10.448979591836736px" x="102.149719069008" y="137.61875181723826" /><rect fill="#009688" height="10.448979591836736px" rx="2px" stroke="#000000" stroke-width="1" width="10.448979591836736px" x="101.45012217563314" y="138.49483952861948" /><rect fill="#83d0c9" height="7.836734693877551px" rx="2px" stroke="#000000" stroke-width="1" width="7.836734693877551px" x="117.45294277880546" y="137.497933146491" /><rect fill="#83d0c9" height="7.836734693877551px" rx="2px" stroke="#000000" stroke-width="1" width="7.836734693877551px" x="117.91422072141694" y="137.77775223812506" /><rect fill="#54b2a9" height="7.836734693877551px" rx="2px" stroke="#000000" stroke-width="1" width="7.836734693877551px" x="120.90181981099809" y="140.37966618535927" /><rect fill="#54b2a9" height="7.836734693877551px" rx="2px" stroke="#000000" stroke-width="1" width="7.836734693877551px" x="119.34761486618761" y="140.68188449531004" /><rect fill="#65c3ba" height="6.530612244897959px" rx="2px" stroke="#000000" stroke-width="1" width="6.530612244897959px" x="57.19543097254123" y="158.00458887534734" /><rect fill="#65c3ba" height="6.530612244897959px" rx="2px" stroke="#000000" stroke-width="1" width="6.530612244897959px" x="55.64116116624406" y="157.96968633308302" /><rect fill="#54b2a9" height="6.530612244897959px" rx="2px" stroke="#000000" stroke-width="1" width="6.530612244897959px" x="59.48411686706281" y="158.38588180451205" /><rect fill="#83d0c9" height="6.530612244897959px" rx="2px" stroke="#000000" stroke-width="1" width="6.530612244897959px" x="57.4846957834333" y="155.62658171354474" /><rect fill="#65c3ba" height="6.530612244897959px" rx="2px" stroke="#000000" stroke-width="1" width="6.530612244897959px" x="56.79006106510795" y="154.15573968090047" /><rect fill="#83d0c9" height="6.530612244897959px" rx="2px" stroke="#000000" stroke-width="1" width="6.530612244897959px" x="54.67497187945651" y="153.80832505684447" /><rect fill="#54b2a9" height="7.836734693877551px" rx="2px" stroke="#000000" stroke-width="1" width="7.836734693877551px" x="71.79593936292349" y="153.9701551286779" /><rect fill="#83d0c9" height="7.836734693877551px" rx="2px" stroke="#000000" stroke-width="1" width="7.836734693877551px" x="73.44738739302628" y="157.78784402510115" /><rect fill="#35a79c" height="7.836734693877551px" rx="2px" stroke="#000000" stroke-width="1" width="7.836734693877551px" x="72.67468528991711" y="158.4442722392763" /><rect fill="#009688" height="7.836734693877551px" rx="2px" stroke="#000000" stroke-width="1" width="7.836734693877551px" x="69.97015895768082" y="156.80790063146247" /><rect fill="#35a79c" height="7.836734693877551px" rx="2px" stroke="#000000" stroke-width="1" width="7.836734693877551px" x="85.04764146497821" y="157.60404623011817" /><rect fill="#35a79c" height="7.836734693877551px" rx="2px" stroke="#000000" stroke-width="1" width="7.836734693877551px" x="85.79620575369965" y="156.28244630726454" /><rect fill="#54b2a9" height="7.836734693877551px" rx="2px" stroke="#000000" stroke-width="1" width="7.836734693877551px" x="88.08324956448931" y="158.1361830434858" /><rect fill="#009688" height="7.836734693877551px" rx="2px" stroke="#000000" stroke-width="1" width="7.836734693877551px" x="85.444220407568" y="158.31128239450658" /><rect fill="#54b2a9" height="6.530612244897959px" rx="2px" stroke="#000000" stroke-width="1" width="6.530612244897959px" x="102.44834196925889" y="158.79794963127972" /><rect fill="#35a79c" height="6.530612244897959px" rx="2px" stroke="#000000" stroke-width="1" width="6.530612244897959px" x="106.43307658523773" y="159.11704465628767" /><rect fill="#35a79c" height="6.530612244897959px" rx="2px" stroke="#000000" stroke-width="1" width="6.530612244897959px" x="102.76478364723472" y="154.0938486508089" /><rect fill="#009688" height="6.530612244897959px" rx="2px" stroke="#000000" stroke-width="1" width="6.530612244897959px" x="102.29593147375115" y="154.1418437301259" /><rect fill="#65c3ba" height="6.530612244897959px" rx="2px" stroke="#000000" stroke-width="1" width="6.530612244897959px" x="102.32317312642216" y="158.77270205437975" /><rect fill="#83d0c9" height="6.530612244897959px" rx="2px" stroke="#000000" stroke-width="1" width="6.530612244897959px" x="104.46544536889317" y="157.2107589159868" /><g style="font-size:40px; font-family:Arial; font-weight: bold; font-style: italic;"><text fill="#000000" x="180" y="120">gelanis</text></g></svg>