<?xml version="1.0" encoding="utf-8" ?>
<svg baseProfile="full" height="128px" version="1.1" width="128px" xmlns="http://www.w3.org/2000/svg" xmlns:ev="http://www.w3.org/2001/xml-events" xmlns:xlink="http://www.w3.org/1999/xlink"><defs /><rect fill="#35a79c" height="6.530612244897959px" rx="2px" stroke="#000000" stroke-width="1" width="6.530612244897959px" x="33.186815028806045" y="3.05430062292036" /><rect fill="#83d0c9" height="6.530612244897959px" rx="2px" stroke="#000000" stroke-width="1" width="6.530612244897959px" x="34.04226289469801" y="1.7655762138524844" /><rect fill="#009688" height="6.530612244897959px" rx="2px" stroke="#000000" stroke-width="1" width="6.530612244897959px" x="33.64937985188503" y="4.15149767356753" /><rect fill="#83d0c9" height="6.530612244897959px" rx="2px" stroke="#000000" stroke-width="1" width="6.530612244897959px" x="33.699846077333525" y="2.7378344281838913" /><rect fill="#83d0c9" height="6.530612244897959px" rx="2px" stroke="#000000" stroke-width="1" width="6.530612244897959px" x="33.19820744702641" y="2.4851955132921093" /><rect fill="#54b2a9" height="6.530612244897959px" rx="2px" stroke="#000000" stroke-width="1" width="6.530612244897959px" x="36.13355621371362" y="4.355316549793682" /><rect fill="#009688" height="7.836734693877551px" rx="2px" stroke="#000000" stroke-width="1" width="7.836734693877551px" x="50.29124741414264" y="2.6454551481394333" /><rect fill="#35a79c" height="7.836734693877551px" rx="2px" stroke="#000000" stroke-width="1" width="7.836734693877551px" x="52.75423599411083" y="2.0547728929760263" /><rect fill="#83d0c9" height="7.836734693877551px" rx="2px" stroke="#000000" stroke-width="1" width="7.836734693877551px" x="50.00709292073678" y="3.338684559404278" /><rect fill="#009688" height="7.836734693877551px" rx="2px" stroke="#000000" stroke-width="1" width="7.836734693877551px" x="50.353546582429004" y="2.9986405263964735" /><rect fill="#35a79c" height="7.836734693877551px" rx="2px" stroke="#000000" stroke-width="1" width="7.836734693877551px" x="69.65808595051406" y="6.307205688149654" /><rect fill="#65c3ba" height="7.836734693877551px" rx="2px" stroke="#000000" stroke-width="1" width="7.836734693877551px" x="68.86711642029252" y="5.881795266073779" /><rect fill="#83d0c9" height="7.836734693877551px" rx="2px" stroke="#000000" stroke-width="1" width="7.836734693877551px" x="68.67582708736849" y="3.3714230229734494" /><rect fill="#83d0c9" height="7.836734693877551px" rx="2px" stroke="#000000" stroke-width="1" width="7.836734693877551px" x="71.1393603435206" y="4.261072086121212" /><rect fill="#65c3ba" height="6.530612244897959px" rx="2px" stroke="#000000" stroke-width="1" width="6.530612244897959px" x="87.86058406018014" y="5.473749345151915" /><rect fill="#54b2a9" height="6.530612244897959px" rx="2px" stroke="#000000" stroke-width="1" width="6.530612244897959px" x="81.14547934108602" y="7.939797827609181" /><rect fill="#83d0c9" height="6.530612244897959px" rx="2px" stroke="#000000" stroke-width="1" width="6.530612244897959px" x="82.78856215476999" y="2.799163323177292" /><rect fill="#65c3ba" height="6.530612244897959px" rx="2px" stroke="#000000" stroke-width="1" width="6.530612244897959px" x="88.0731325914095" y="1.6397788460580331" /><rect fill="#83d0c9" height="6.530612244897959px" rx="2px" stroke="#000000" stroke-width="1" width="6.530612244897959px" x="87.09519409697454" y="8.304945401753148" /><rect fill="#65c3ba" height="6.530612244897959px" rx="2px" stroke="#000000" stroke-width="1" width="6.530612244897959px" x="86.72031430870118" y="1.9590056327941467" /><rect fill="#65c3ba" height="3.9183673469387763px" rx="2px" stroke="#000000" stroke-width="1" width="3.9183673469387763px" x="98.9196428100973" y="1.9772208618171168" /><rect fill="#009688" height="3.9183673469387763px" rx="2px" stroke="#000000" stroke-width="1" width="3.9183673469387763px" x="100.57189791622937" y="5.144582129970828" /><rect fill="#009688" height="3.9183673469387763px" rx="2px" stroke="#000000" stroke-width="1" width="3.9183673469387763px" x="103.78861400740594" y="10.921992130914026" /><rect fill="#009688" height="3.9183673469387763px" rx="2px" stroke="#000000" stroke-width="1" width="3.9183673469387763px" x="97.61107471416418" y="8.341581891631513" /><rect fill="#65c3ba" height="3.9183673469387763px" rx="2px" stroke="#000000" stroke-width="1" width="3.9183673469387763px" x="99.50686181544124" y="2.917616342240018" /><rect fill="#65c3ba" height="3.9183673469387763px" rx="2px" stroke="#000000" stroke-width="1" width="3.9183673469387763px" x="98.4132664237718" y="2.8498589730386374" /><rect fill="#65c3ba" height="3.9183673469387763px" rx="2px" stroke="#000000" stroke-width="1" width="3.9183673469387763px" x="99.51845684191342" y="10.30802461310919" /><rect fill="#009688" height="3.9183673469387763px" rx="2px" stroke="#000000" stroke-width="1" width="3.9183673469387763px" x="105.14618344688697" y="9.629543773048493" /><rect fill="#009688" height="3.9183673469387763px" rx="2px" stroke="#000000" stroke-width="1" width="3.9183673469387763px" x="97.51001295480187" y="11.074398763181366" /><rect fill="#35a79c" height="3.9183673469387763px" rx="2px" stroke="#000000" stroke-width="1" width="3.9183673469387763px" x="106.76906430813607" y="10.339291624612551" /><rect fill="#35a79c" height="3.9183673469387763px" rx="2px" stroke="#000000" stroke-width="1" width="3.9183673469387763px" x="98.6766875232313" y="5.896055428013366" /><rect fill="#35a79c" height="3.9183673469387763px" rx="2px" stroke="#000000" stroke-width="1" width="3.9183673469387763px" x="105.71708764593727" y="10.098097460453285" /><rect fill="#54b2a9" height="3.9183673469387763px" rx="2px" stroke="#000000" stroke-width="1" width="3.9183673469387763px" x="100.82066777091013" y="10.933521812799686" /><rect fill="#54b2a9" height="3.9183673469387763px" rx="2px" stroke="#000000" stroke-width="1" width="3.9183673469387763px" x="106.34081486404716" y="8.915385760332573" /><rect fill="#83d0c9" height="3.9183673469387763px" rx="2px" stroke="#000000" stroke-width="1" width="3.9183673469387763px" x="101.26460608324777" y="10.65132478744242" /><rect fill="#35a79c" height="3.9183673469387763px" rx="2px" stroke="#000000" stroke-width="1" width="3.9183673469387763px" x="103.6727434306871" y="5.906442395045689" /><rect fill="#009688" height="7.836734693877551px" rx="2px" stroke="#000000" stroke-width="1" width="7.836734693877551px" x="19.247444033241457" y="22.750868962800766" /><rect fill="#35a79c" height="7.836734693877551px" rx="2px" stroke="#000000" stroke-width="1" width="7.836734693877551px" x="22.540311025122353" y="18.29475744037971" /><rect fill="#83d0c9" height="7.836734693877551px" rx="2px" stroke="#000000" stroke-width="1" width="7.836734693877551px" x="21.110487551263958" y="19.179815258237035" /><rect fill="#83d0c9" height="7.836734693877551px" rx="2px" stroke="#000000" stroke-width="1" width="7.836734693877551px" x="22.449156731391934" y="19.504611667944882" /><rect fill="#54b2a9" height="10.448979591836736px" rx="2px" stroke="#000000" stroke-width="1" width="10.448979591836736px" x="33.0840328905725" y="17.685807819775945" /><rect fill="#54b2a9" height="10.448979591836736px" rx="2px" stroke="#000000" stroke-width="1" width="10.448979591836736px" x="33.989325155469444" y="17.24651451655777" /><rect fill="#009688" height="11.755102040816325px" rx="2px" stroke="#000000" stroke-width="1" width="11.755102040816325px" x="49.97965973930137" y="19.209509049486222" /><rect fill="#35a79c" height="11.755102040816325px" rx="2px" stroke="#000000" stroke-width="1" width="11.755102040816325px" x="66.54192420735914" y="19.110794760076143" /><rect fill="#54b2a9" height="10.448979591836736px" rx="2px" stroke="#000000" stroke-width="1" width="10.448979591836736px" x="82.8008023612681" y="19.368150312538713" /><rect fill="#35a79c" height="10.448979591836736px" rx="2px" stroke="#000000" stroke-width="1" width="10.448979591836736px" x="82.42893198669478" y="18.04987765794928" /><rect fill="#65c3ba" height="7.836734693877551px" rx="2px" stroke="#000000" stroke-width="1" width="7.836734693877551px" x="101.03512445629241" y="19.865845580706086" /><rect fill="#35a79c" height="7.836734693877551px" rx="2px" stroke="#000000" stroke-width="1" width="7.836734693877551px" x="101.16406988619204" y="20.150500960329087" /><rect fill="#83d0c9" height="7.836734693877551px" rx="2px" stroke="#000000" stroke-width="1" width="7.836734693877551px" x="101.0606719385617" y="18.74905090424274" /><rect fill="#35a79c" height="7.836734693877551px" rx="2px" stroke="#000000" stroke-width="1" width="7.836734693877551px" x="99.06585414558694" y="22.04416094469536" /><rect fill="#009688" height="3.9183673469387763px" rx="2px" stroke="#000000" stroke-width="1" width="3.9183673469387763px" x="113.50628331141789" y="19.512325513306653" /><rect fill="#83d0c9" height="3.9183673469387763px" rx="2px" stroke="#000000" stroke-width="1" width="3.9183673469387763px" x="117.60188044453602" y="25.079587780628543" /><rect fill="#65c3ba" height="3.9183673469387763px" rx="2px" stroke="#000000" stroke-width="1" width="3.9183673469387763px" x="122.95956881254746" y="23.003131537222313" /><rect fill="#83d0c9" height="3.9183673469387763px" rx="2px" stroke="#000000" stroke-width="1" width="3.9183673469387763px" x="119.1765356621288" y="24.251455854496484" /><rect fill="#65c3ba" height="3.9183673469387763px" rx="2px" stroke="#000000" stroke-width="1" width="3.9183673469387763px" x="117.30224354873829" y="26.14257626214939" /><rect fill="#65c3ba" height="3.9183673469387763px" rx="2px" stroke="#000000" stroke-width="1" width="3.9183673469387763px" x="122.04532251014759" y="24.497260988302752" /><rect fill="#54b2a9" height="3.9183673469387763px" rx="2px" stroke="#000000" stroke-width="1" width="3.9183673469387763px" x="117.53743796081577" y="24.57913739859699" /><rect fill="#35a79c" height="3.9183673469387763px" rx="2px" stroke="#000000" stroke-width="1" width="3.9183673469387763px" x="120.72065224577142" y="22.25555321504129" /><rect fill="#54b2a9" height="3.9183673469387763px" rx="2px" stroke="#000000" stroke-width="1" width="3.9183673469387763px" x="115.7683905872911" y="17.781158710391416" /><rect fill="#83d0c9" height="3.9183673469387763px" rx="2px" stroke="#000000" stroke-width="1" width="3.9183673469387763px" x="115.36407811304551" y="20.385891491651613" /><rect fill="#65c3ba" height="3.9183673469387763px" rx="2px" stroke="#000000" stroke-width="1" width="3.9183673469387763px" x="113.81235434454874" y="18.520619286907444" /><rect fill="#009688" height="3.9183673469387763px" rx="2px" stroke="#000000" stroke-width="1" width="3.9183673469387763px" x="119.99614708725983" y="24.121858285655282" /><rect fill="#65c3ba" height="3.9183673469387763px" rx="2px" stroke="#000000" stroke-width="1" width="3.9183673469387763px" x="117.18254572599429" y="20.33582463617986" /><rect fill="#65c3ba" height="3.9183673469387763px" rx="2px" stroke="#000000" stroke-width="1" width="3.9183673469387763px" x="117.1916830948359" y="19.08522833510446" /><rect fill="#009688" height="3.9183673469387763px" rx="2px" stroke="#000000" stroke-width="1" width="3.9183673469387763px" x="116.92656215219324" y="24.760798194355992" /><rect fill="#65c3ba" height="3.9183673469387763px" rx="2px" stroke="#000000" stroke-width="1" width="3.9183673469387763px" x="121.63725763179885" y="24.718443277598496" /><rect fill="#54b2a9" height="6.530612244897959px" rx="2px" stroke="#000000" stroke-width="1" width="6.530612244897959px" x="4.25282234842469" y="38.481001658549005" /><rect fill="#65c3ba" height="6.530612244897959px" rx="2px" stroke="#000000" stroke-width="1" width="6.530612244897959px" x="5.600488195583667" y="39.86898086584516" /><rect fill="#83d0c9" height="6.530612244897959px" rx="2px" stroke="#000000" stroke-width="1" width="6.530612244897959px" x="4.472322457514895" y="39.16773189840809" /><rect fill="#009688" height="6.530612244897959px" rx="2px" stroke="#000000" stroke-width="1" width="6.530612244897959px" x="3.0047503454289077" y="39.36177584830766" /><rect fill="#65c3ba" height="6.530612244897959px" rx="2px" stroke="#000000" stroke-width="1" width="6.530612244897959px" x="3.0834232490702873" y="36.36721494022286" /><rect fill="#54b2a9" height="6.530612244897959px" rx="2px" stroke="#000000" stroke-width="1" width="6.530612244897959px" x="5.256427958209509" y="37.99095877924593" /><rect fill="#35a79c" height="10.448979591836736px" rx="2px" stroke="#000000" stroke-width="1" width="10.448979591836736px" x="17.424541326089372" y="34.90286387707699" /><rect fill="#54b2a9" height="10.448979591836736px" rx="2px" stroke="#000000" stroke-width="1" width="10.448979591836736px" x="17.680165904159892" y="35.62280019817464" /><rect fill="#35a79c" height="7.836734693877551px" rx="2px" stroke="#000000" stroke-width="1" width="7.836734693877551px" x="7.004838146796467" y="52.410498121901625" /><rect fill="#009688" height="7.836734693877551px" rx="2px" stroke="#000000" stroke-width="1" width="7.836734693877551px" x="4.9313599151426555" y="53.63965789977467" /><rect fill="#65c3ba" height="7.836734693877551px" rx="2px" stroke="#000000" stroke-width="1" width="7.836734693877551px" x="6.378803264684846" y="52.53811008830923" /><rect fill="#009688" height="7.836734693877551px" rx="2px" stroke="#000000" stroke-width="1" width="7.836734693877551px" x="3.9504426734516778" y="51.09986105373895" /><rect fill="#83d0c9" height="11.755102040816325px" rx="2px" stroke="#000000" stroke-width="1" width="11.755102040816325px" x="17.685547487247543" y="50.394142965672174" /><rect fill="#35a79c" height="15.673469387755102px" rx="2px" stroke="#000000" stroke-width="1" width="15.673469387755102px" x="64.59859296797296" y="48.07625787474743" /><rect fill="#35a79c" height="14.36734693877551px" rx="2px" stroke="#000000" stroke-width="1" width="14.36734693877551px" x="80.741759672537" y="48.83321298213619" /><rect fill="#54b2a9" height="11.755102040816325px" rx="2px" stroke="#000000" stroke-width="1" width="11.755102040816325px" x="98.22248697261558" y="50.453873868862715" /><rect fill="#54b2a9" height="7.836734693877551px" rx="2px" stroke="#000000" stroke-width="1" width="7.836734693877551px" x="3.7066192142748715" y="67.88870993925308" /><rect fill="#83d0c9" height="7.836734693877551px" rx="2px" stroke="#000000" stroke-width="1" width="7.836734693877551px" x="5.312644344136054" y="70.80996376948369" /><rect fill="#83d0c9" height="7.836734693877551px" rx="2px" stroke="#000000" stroke-width="1" width="7.836734693877551px" x="4.328049630706127" y="67.69802401629842" /><rect fill="#54b2a9" height="7.836734693877551px" rx="2px" stroke="#000000" stroke-width="1" width="7.836734693877551px" x="1.2456725882336968" y="67.66270727707251" /><rect fill="#65c3ba" height="11.755102040816325px" rx="2px" stroke="#000000" stroke-width="1" width="11.755102040816325px" x="17.9241012219726" y="66.11227739400158" /><rect fill="#009688" height="15.673469387755102px" rx="2px" stroke="#000000" stroke-width="1" width="15.673469387755102px" x="47.552598614443795" y="63.6195095782034" /><rect fill="#35a79c" height="15.673469387755102px" rx="2px" stroke="#000000" stroke-width="1" width="15.673469387755102px" x="63.95339761518591" y="63.7281791029183" /><rect fill="#35a79c" height="14.36734693877551px" rx="2px" stroke="#000000" stroke-width="1" width="14.36734693877551px" x="80.64251749622876" y="64.7763328569903" /><rect fill="#35a79c" height="11.755102040816325px" rx="2px" stroke="#000000" stroke-width="1" width="11.755102040816325px" x="99.1260547277455" y="66.45404215849415" /><rect fill="#65c3ba" height="7.836734693877551px" rx="2px" stroke="#000000" stroke-width="1" width="7.836734693877551px" x="114.50217823744269" y="68.39759292281433" /><rect fill="#35a79c" height="7.836734693877551px" rx="2px" stroke="#000000" stroke-width="1" width="7.836734693877551px" x="114.17478228625049" y="68.69412315918" /><rect fill="#65c3ba" height="7.836734693877551px" rx="2px" stroke="#000000" stroke-width="1" width="7.836734693877551px" x="118.32522722851905" y="66.70258603371951" /><rect fill="#54b2a9" height="7.836734693877551px" rx="2px" stroke="#000000" stroke-width="1" width="7.836734693877551px" x="115.09474129429627" y="69.85491135797585" /><rect fill="#35a79c" height="6.530612244897959px" rx="2px" stroke="#000000" stroke-width="1" width="6.530612244897959px" x="8.38284744305728" y="86.91869550645254" /><rect fill="#83d0c9" height="6.530612244897959px" rx="2px" stroke="#000000" stroke-width="1" width="6.530612244897959px" x="4.699801750196142" y="81.27651383168329" /><rect fill="#009688" height="6.530612244897959px" rx="2px" stroke="#000000" stroke-width="1" width="6.530612244897959px" x="8.210600285810784" y="83.47979717630366" /><rect fill="#83d0c9" height="6.530612244897959px" rx="2px" stroke="#000000" stroke-width="1" width="6.530612244897959px" x="7.5296668755893235" y="84.28881781175649" /><rect fill="#35a79c" height="6.530612244897959px" rx="2px" stroke="#000000" stroke-width="1" width="6.530612244897959px" x="7.80044191912055" y="81.11463715993848" /><rect fill="#35a79c" height="6.530612244897959px" rx="2px" stroke="#000000" stroke-width="1" width="6.530612244897959px" x="4.06228928218713" y="85.89081562188879" /><rect fill="#65c3ba" height="10.448979591836736px" rx="2px" stroke="#000000" stroke-width="1" width="10.448979591836736px" x="17.621674852672356" y="83.16431777384909" /><rect fill="#83d0c9" height="10.448979591836736px" rx="2px" stroke="#000000" stroke-width="1" width="10.448979591836736px" x="19.20060416582674" y="81.85519150577548" /><rect fill="#54b2a9" height="10.448979591836736px" rx="2px" stroke="#000000" stroke-width="1" width="10.448979591836736px" x="99.26888437164575" y="82.50672969984073" /><rect fill="#65c3ba" height="10.448979591836736px" rx="2px" stroke="#000000" stroke-width="1" width="10.448979591836736px" x="98.62223329396316" y="82.07284021782993" /><rect fill="#54b2a9" height="6.530612244897959px" rx="2px" stroke="#000000" stroke-width="1" width="6.530612244897959px" x="118.56597976353129" y="87.22079667919157" /><rect fill="#54b2a9" height="6.530612244897959px" rx="2px" stroke="#000000" stroke-width="1" width="6.530612244897959px" x="118.79431017418035" y="82.71884349173821" /><rect fill="#54b2a9" height="6.530612244897959px" rx="2px" stroke="#000000" stroke-width="1" width="6.530612244897959px" x="114.63582982138136" y="82.42016955255947" /><rect fill="#35a79c" height="6.530612244897959px" rx="2px" stroke="#000000" stroke-width="1" width="6.530612244897959px" x="118.06248554808468" y="86.38489358900978" /><rect fill="#009688" height="6.530612244897959px" rx="2px" stroke="#000000" stroke-width="1" width="6.530612244897959px" x="117.69262869284499" y="87.74787256511645" /><rect fill="#83d0c9" height="6.530612244897959px" rx="2px" stroke="#000000" stroke-width="1" width="6.530612244897959px" x="115.30753950054418" y="84.29267933876713" /><rect fill="#83d0c9" height="7.836734693877551px" rx="2px" stroke="#000000" stroke-width="1" width="7.836734693877551px" x="21.159196729047903" y="99.90583702306928" /><rect fill="#83d0c9" height="7.836734693877551px" rx="2px" stroke="#000000" stroke-width="1" width="7.836734693877551px" x="22.449773943977252" y="100.4601026416217" /><rect fill="#65c3ba" height="7.836734693877551px" rx="2px" stroke="#000000" stroke-width="1" width="7.836734693877551px" x="18.36434478412949" y="97.38962339653835" /><rect fill="#65c3ba" height="7.836734693877551px" rx="2px" stroke="#000000" stroke-width="1" width="7.836734693877551px" x="22.604797281739252" y="98.86247821852722" /><rect fill="#009688" height="10.448979591836736px" rx="2px" stroke="#000000" stroke-width="1" width="10.448979591836736px" x="36.37544080722751" y="100.03772109459665" /><rect fill="#54b2a9" height="10.448979591836736px" rx="2px" stroke="#000000" stroke-width="1" width="10.448979591836736px" x="36.48329434670179" y="98.3044139342553" /><rect fill="#35a79c" height="11.755102040816325px" rx="2px" stroke="#000000" stroke-width="1" width="11.755102040816325px" x="51.21980202925626" y="98.76668553055907" /><rect fill="#83d0c9" height="11.755102040816325px" rx="2px" stroke="#000000" stroke-width="1" width="11.755102040816325px" x="66.73837843997" y="98.77042475450075" /><rect fill="#009688" height="10.448979591836736px" rx="2px" stroke="#000000" stroke-width="1" width="10.448979591836736px" x="83.34742917983537" y="97.0915458380163" /><rect fill="#83d0c9" height="10.448979591836736px" rx="2px" stroke="#000000" stroke-width="1" width="10.448979591836736px" x="82.27212564456482" y="99.79973646928462" /><rect fill="#83d0c9" height="7.836734693877551px" rx="2px" stroke="#000000" stroke-width="1" width="7.836734693877551px" x="102.8268474321831" y="97.26727022741939" /><rect fill="#009688" height="7.836734693877551px" rx="2px" stroke="#000000" stroke-width="1" width="7.836734693877551px" x="98.85902774217311" y="100.96507931898077" /><rect fill="#65c3ba" height="7.836734693877551px" rx="2px" stroke="#000000" stroke-width="1" width="7.836734693877551px" x="97.37488312374165" y="99.95209259431644" /><rect fill="#65c3ba" height="7.836734693877551px" rx="2px" stroke="#000000" stroke-width="1" width="7.836734693877551px" x="99.62723740862363" y="97.66539739924748" /><rect fill="#65c3ba" height="6.530612244897959px" rx="2px" stroke="#000000" stroke-width="1" width="6.530612244897959px" x="36.10718799991239" y="113.710233003569" /><rect fill="#35a79c" height="6.530612244897959px" rx="2px" stroke="#000000" stroke-width="1" width="6.530612244897959px" x="35.33435973546783" y="114.90387072474893" /><rect fill="#009688" height="6.530612244897959px" rx="2px" stroke="#000000" stroke-width="1" width="6.530612244897959px" x="38.13013263226354" y="116.54249073725738" /><rect fill="#009688" height="6.530612244897959px" rx="2px" stroke="#000000" stroke-width="1" width="6.530612244897959px" x="39.21282675881218" y="113.69637178007237" /><rect fill="#35a79c" height="6.530612244897959px" rx="2px" stroke="#000000" stroke-width="1" width="6.530612244897959px" x="38.56162372906587" y="115.7834438883996" /><rect fill="#83d0c9" height="6.530612244897959px" rx="2px" stroke="#000000" stroke-width="1" width="6.530612244897959px" x="37.15574875990241" y="117.38053510780915" /><rect fill="#35a79c" height="7.836734693877551px" rx="2px" stroke="#000000" stroke-width="1" width="7.836734693877551px" x="51.163450470664664" y="114.1180505832693" /><rect fill="#35a79c" height="7.836734693877551px" rx="2px" stroke="#000000" stroke-width="1" width="7.836734693877551px" x="52.49038715546807" y="115.47014024260926" /><rect fill="#009688" height="7.836734693877551px" rx="2px" stroke="#000000" stroke-width="1" width="7.836734693877551px" x="53.56678889497475" y="118.9895248217331" /><rect fill="#65c3ba" height="7.836734693877551px" rx="2px" stroke="#000000" stroke-width="1" width="7.836734693877551px" x="53.59848473725966" y="114.32592101571674" /><rect fill="#35a79c" height="7.836734693877551px" rx="2px" stroke="#000000" stroke-width="1" width="7.836734693877551px" x="68.24763470119878" y="114.90087053753223" /><rect fill="#009688" height="7.836734693877551px" rx="2px" stroke="#000000" stroke-width="1" width="7.836734693877551px" x="67.43611317588702" y="116.69379871422906" /><rect fill="#35a79c" height="7.836734693877551px" rx="2px" stroke="#000000" stroke-width="1" width="7.836734693877551px" x="66.25991395009851" y="118.82628314984585" /><rect fill="#009688" height="7.836734693877551px" rx="2px" stroke="#000000" stroke-width="1" width="7.836734693877551px" x="69.70972633714075" y="114.7839394617891" /><rect fill="#54b2a9" height="6.530612244897959px" rx="2px" stroke="#000000" stroke-width="1" width="6.530612244897959px" x="86.98538588729848" y="117.61701727284392" /><rect fill="#35a79c" height="6.530612244897959px" rx="2px" stroke="#000000" stroke-width="1" width="6.530612244897959px" x="81.65827625622502" y="119.30778113657509" /><rect fill="#009688" height="6.530612244897959px" rx="2px" stroke="#000000" stroke-width="1" width="6.530612244897959px" x="84.25423691551401" y="115.99111495452425" /><rect fill="#54b2a9" height="6.530612244897959px" rx="2px" stroke="#000000" stroke-width="1" width="6.530612244897959px" x="83.95613491939828" y="115.31756101289643" /><rect fill="#009688" height="6.530612244897959px" rx="2px" stroke="#000000" stroke-width="1" width="6.530612244897959px" x="82.65500762357748" y="118.81953346752643" /><rect fill="#83d0c9" height="6.530612244897959px" rx="2px" stroke="#000000" stroke-width="1" width="6.530612244897959px" x="84.8129975947434" y="113.85170918736551" /></svg>